<svg width="94" height="64" viewBox="0 0 94 64" fill="none" xmlns="http://www.w3.org/2000/svg">
<path d="M23.1448 36.669L22.0295 27.3723C22.0182 27.3061 21.9939 27.2428 21.9581 27.186C21.9223 27.1292 21.8756 27.08 21.8208 27.0412C21.7659 27.0024 21.704 26.9748 21.6385 26.9599C21.573 26.9451 21.5052 26.9433 21.439 26.9546C21.3728 26.966 21.3095 26.9902 21.2526 27.0261C21.1958 27.0619 21.1466 27.1086 21.1078 27.1634C21.069 27.2182 21.0414 27.2802 21.0266 27.3457C21.0117 27.4112 21.0099 27.479 21.0213 27.5452L23.1489 36.6937C23.2354 36.669 23.0543 36.6896 23.1448 36.669Z" fill="#FFE504"/>
<path d="M32.31 30.0592C32.2596 30.0143 32.2008 29.9798 32.137 29.9577C32.0732 29.9357 32.0057 29.9265 31.9383 29.9307C31.871 29.9349 31.8051 29.9524 31.7446 29.9823C31.684 30.0121 31.63 30.0537 31.5856 30.1045L25.6924 37.5122C25.7541 37.574 25.7829 37.4217 25.8405 37.4876L32.3552 30.7918C32.4009 30.741 32.436 30.6816 32.4585 30.6171C32.481 30.5526 32.4904 30.4842 32.4862 30.416C32.482 30.3478 32.4642 30.2812 32.434 30.2199C32.4037 30.1586 32.3616 30.104 32.31 30.0592Z" fill="#FFE504"/>
<path d="M36.2363 39.9284L26.5774 40.023C26.5774 40.1012 26.5321 39.9572 26.5198 40.023L36.191 40.9408C36.3204 40.9364 36.4434 40.8834 36.5355 40.7923C36.6275 40.7012 36.6819 40.5787 36.6876 40.4493C36.6933 40.3199 36.65 40.1932 36.5663 40.0943C36.4827 39.9954 36.3648 39.9318 36.2363 39.916V39.9284Z" fill="#FFE504"/>
<path d="M31.5159 49.7184L25.2317 42.0967L30.6846 50.3275C30.7246 50.3815 30.7748 50.4272 30.8325 50.4618C30.8901 50.4964 30.954 50.5194 31.0205 50.5293C31.087 50.5392 31.1548 50.536 31.22 50.5197C31.2852 50.5034 31.3466 50.4745 31.4007 50.4345C31.4547 50.3945 31.5004 50.3443 31.535 50.2866C31.5696 50.229 31.5926 50.1651 31.6025 50.0986C31.6124 50.0321 31.6092 49.9643 31.5929 49.8991C31.5766 49.8338 31.5477 49.7725 31.5077 49.7184H31.5159Z" fill="#FFE504"/>
<path d="M22.9394 42.3721L19.9392 51.9404C19.9154 52.0075 19.9058 52.0789 19.911 52.1499C19.9163 52.221 19.9362 52.2902 19.9695 52.3531C20.0029 52.416 20.0489 52.4714 20.1048 52.5156C20.1606 52.5598 20.2251 52.5919 20.294 52.61C20.3629 52.628 20.4348 52.6315 20.5052 52.6203C20.5755 52.609 20.6427 52.5833 20.7026 52.5447C20.7625 52.5062 20.8138 52.4556 20.8531 52.3962C20.8924 52.3368 20.9189 52.2699 20.931 52.1997L22.9558 42.4585C22.8859 42.4297 23.0052 42.3926 22.9394 42.3721Z" fill="#FFE504"/>
<path d="M21.1944 40.9525L11.9306 44.5905C11.8231 44.6549 11.7429 44.7564 11.7049 44.8758C11.6669 44.9953 11.6738 45.1245 11.7243 45.2392C11.7748 45.3538 11.8655 45.4462 11.9793 45.4987C12.093 45.5513 12.2221 45.5606 12.3422 45.5247L21.2315 40.9443C21.2109 40.8825 21.2232 41.0184 21.1944 40.9525Z" fill="#FFE504"/>
<path d="M21.0665 38.5327L12.6176 33.7423C12.5576 33.7121 12.4922 33.6939 12.4252 33.6889C12.3582 33.6839 12.2909 33.6922 12.2271 33.7132C12.1633 33.7342 12.1042 33.7676 12.0533 33.8114C12.0024 33.8553 11.9606 33.9087 11.9303 33.9687C11.9001 34.0287 11.8819 34.094 11.8769 34.161C11.8719 34.2281 11.8801 34.2954 11.9012 34.3592C11.9222 34.423 11.9556 34.4821 11.9994 34.533C12.0432 34.5839 12.0967 34.6257 12.1567 34.656L20.9678 38.5491C20.9883 38.4751 21.0377 38.6109 21.0665 38.5327Z" fill="#FFE504"/>
<path d="M27.5896 24.2729C27.509 24.2521 27.4251 24.2475 27.3428 24.2594C27.2604 24.2714 27.1813 24.2997 27.11 24.3426C27.0387 24.3855 26.9767 24.4422 26.9276 24.5094C26.8785 24.5766 26.8433 24.6529 26.8241 24.7338L24.2314 36.6438C24.3178 36.6438 24.1656 36.7014 24.2314 36.722L28.0135 25.0631C28.0381 24.9834 28.0467 24.8996 28.0387 24.8165C28.0307 24.7335 28.0062 24.6529 27.9668 24.5793C27.9273 24.5058 27.8737 24.4409 27.8089 24.3883C27.7442 24.3357 27.6696 24.2965 27.5896 24.2729Z" fill="#FFE504"/>
<path d="M38.0427 33.2855C37.9759 33.1339 37.8518 33.015 37.6975 32.9549C37.5432 32.8947 37.3713 32.8982 37.2196 32.9645L26.3179 38.4462C26.3549 38.5244 26.3508 38.3516 26.3796 38.4462L37.7258 34.1209C37.802 34.0876 37.8708 34.0393 37.9281 33.979C37.9855 33.9187 38.0302 33.8476 38.0597 33.7698C38.0892 33.692 38.1029 33.6091 38.1 33.5259C38.0971 33.4428 38.0776 33.361 38.0427 33.2855Z" fill="#FFE504"/>
<path d="M37.3265 46.2375L26.1655 41.1961C26.1285 41.2743 26.2149 41.1262 26.1655 41.1961L36.7545 47.3692C36.8278 47.4113 36.9089 47.4382 36.9929 47.448C37.0769 47.4579 37.162 47.4507 37.2431 47.4268C37.3242 47.4028 37.3996 47.3627 37.4648 47.3088C37.5299 47.2549 37.5835 47.1883 37.6222 47.1131C37.6609 47.0379 37.684 46.9557 37.69 46.8713C37.696 46.787 37.6849 46.7023 37.6572 46.6224C37.6296 46.5424 37.586 46.4689 37.5292 46.4063C37.4723 46.3437 37.4034 46.2933 37.3265 46.2581V46.2375Z" fill="#FFE504"/>
<path d="M23.9312 42.4873L25.8489 54.9117C25.8828 55.0754 25.9803 55.219 26.12 55.3109C26.2596 55.4027 26.4301 55.4353 26.5938 55.4015C26.7575 55.3676 26.9011 55.2701 26.993 55.1304C27.0848 54.9907 27.1174 54.8203 27.0836 54.6566L23.9394 42.4873H23.9312Z" fill="#FFE504"/>
<path d="M21.7291 41.6855L13.1114 51.1798C13.0593 51.2433 13.0201 51.3164 12.9962 51.3951C12.9724 51.4737 12.9642 51.5563 12.9722 51.638C12.9803 51.7198 13.0043 51.7992 13.043 51.8717C13.0817 51.9442 13.1343 52.0083 13.1978 52.0605C13.2613 52.1126 13.3345 52.1518 13.4131 52.1757C13.4917 52.1995 13.5743 52.2077 13.6561 52.1997C13.7379 52.1916 13.8173 52.1676 13.8898 52.1289C13.9622 52.0902 14.0264 52.0376 14.0785 51.9741L21.7291 41.6855Z" fill="#FFE504"/>
<path d="M20.8939 39.6644L8.01268 38.9277C7.84639 38.9266 7.68641 38.9914 7.56767 39.1078C7.44894 39.2242 7.38108 39.3829 7.37891 39.5492C7.37889 39.7148 7.4441 39.8737 7.56041 39.9915C7.67672 40.1094 7.83477 40.1767 8.00033 40.1788L20.8774 39.6685C20.8733 39.6027 20.898 39.7344 20.8939 39.6644Z" fill="#FFE504"/>
<path d="M21.643 37.4914L14.3382 27.2605C14.2305 27.1508 14.0862 27.0846 13.9328 27.0746C13.7795 27.0645 13.6278 27.1113 13.5067 27.2059C13.3856 27.3005 13.3036 27.4364 13.2763 27.5877C13.249 27.7389 13.2783 27.8949 13.3587 28.0259L21.643 37.4914C21.6924 37.4173 21.5854 37.5284 21.643 37.4914Z" fill="#FFE504"/>
<g opacity="0.53">
<path d="M65.6285 23.9692L57.4306 15.1499C57.3057 15.0276 57.1372 14.96 56.9624 14.962C56.7876 14.9639 56.6207 15.0352 56.4985 15.1602C56.3763 15.2851 56.3087 15.4535 56.3106 15.6284C56.3125 15.8032 56.3838 15.97 56.5088 16.0923L65.645 23.9898C65.7232 23.9116 65.5627 24.0515 65.6285 23.9692Z" fill="white"/>
<path d="M70.1432 10.1572C69.9711 10.141 69.7994 10.1933 69.6654 10.3026C69.5315 10.412 69.4459 10.5696 69.4272 10.7416L68.9004 22.8861C69.0115 22.8861 68.9251 22.7215 69.0321 22.7503L70.74 10.8609C70.7526 10.6888 70.6971 10.5187 70.5855 10.387C70.4739 10.2554 70.3151 10.1729 70.1432 10.1572Z" fill="white"/>
<path d="M81.6948 17.4414L71.7356 24.8532C71.7849 24.9396 71.6368 24.8162 71.6821 24.9067L82.4356 18.5608C82.5078 18.513 82.5699 18.4515 82.6183 18.3797C82.6667 18.3079 82.7005 18.2272 82.7177 18.1424C82.7349 18.0575 82.7352 17.9701 82.7186 17.8851C82.702 17.8001 82.6687 17.7193 82.6208 17.6471C82.5739 17.5724 82.5126 17.5077 82.4405 17.4569C82.3684 17.406 82.2869 17.37 82.2008 17.3508C82.1147 17.3317 82.0256 17.3298 81.9388 17.3454C81.8519 17.3609 81.769 17.3936 81.6948 17.4414Z" fill="white"/>
<path d="M84.1971 31.1916L71.9085 28.0269C71.8714 28.1133 71.9496 27.9405 71.9085 28.0269L83.802 32.4592C83.8847 32.4862 83.9719 32.4967 84.0586 32.49C84.1454 32.4833 84.2299 32.4596 84.3075 32.4203C84.3851 32.3809 84.4541 32.3267 84.5107 32.2606C84.5674 32.1946 84.6104 32.118 84.6374 32.0353C84.6644 31.9526 84.6749 31.8654 84.6682 31.7787C84.6616 31.6919 84.6379 31.6074 84.5985 31.5298C84.5591 31.4522 84.5049 31.3832 84.4388 31.3266C84.3728 31.2699 84.2962 31.2269 84.2135 31.1999L84.1971 31.1916Z" fill="white"/>
<path d="M69.7275 30.0438L73.8429 42.2624C73.9068 42.4261 74.0331 42.5578 74.194 42.6284C74.3549 42.699 74.5373 42.7028 74.701 42.639C74.8647 42.5751 74.9964 42.4489 75.067 42.2879C75.1376 42.127 75.1414 41.9446 75.0776 41.7809L69.8099 30.1261C69.7234 30.1631 69.8098 30.015 69.7275 30.0438Z" fill="white"/>
<path d="M66.8382 29.8912L59.9614 40.6818C59.8752 40.8341 59.853 41.0144 59.8997 41.183C59.9464 41.3516 60.0581 41.4948 60.2104 41.5811C60.3626 41.6673 60.5429 41.6895 60.7116 41.6428C60.8802 41.5961 61.0234 41.4843 61.1096 41.3321L66.8712 29.846C66.7971 29.8048 66.9164 29.9365 66.8382 29.8912Z" fill="white"/>
<path d="M64.8752 27.4756L52.4673 28.8872C52.3819 28.9009 52.3001 28.9314 52.2264 28.9768C52.1528 29.0222 52.0889 29.0817 52.0382 29.1518C51.9876 29.2219 51.9513 29.3014 51.9313 29.3855C51.9114 29.4697 51.9082 29.557 51.922 29.6423C51.9358 29.7277 51.9662 29.8096 52.0116 29.8832C52.0571 29.9568 52.1165 30.0208 52.1866 30.0714C52.2568 30.122 52.3362 30.1584 52.4203 30.1783C52.5045 30.1982 52.5918 30.2014 52.6772 30.1876L64.7847 27.5661C64.7394 27.4715 64.904 27.5744 64.8752 27.4756Z" fill="white"/>
<path d="M60.8627 7.71705C60.6675 7.79774 60.5107 7.9504 60.4249 8.14345C60.3391 8.3365 60.3309 8.55515 60.4018 8.75413L66.7189 23.0881C66.8136 23.0305 66.6943 23.2033 66.793 23.1581L61.9039 8.17798C61.8232 7.98177 61.6699 7.8243 61.4759 7.73842C61.2819 7.65254 61.0622 7.64489 60.8627 7.71705Z" fill="white"/>
<path d="M78.5465 9.17476C78.3605 9.07151 78.1418 9.04427 77.9362 9.09874C77.7306 9.15321 77.554 9.28517 77.4436 9.46695L70.2622 23.4099C70.3569 23.4676 70.2252 23.2906 70.3157 23.3523L78.8346 10.2736C78.937 10.0885 78.9641 9.8711 78.9105 9.6665C78.8569 9.46191 78.7265 9.28582 78.5465 9.17476Z" fill="white"/>
<path d="M87.6047 23.1748L72.1802 26.3807C72.1802 26.2737 72.1802 26.4918 72.1802 26.3807L87.8475 24.7798C88.0221 24.712 88.1684 24.5868 88.2622 24.4246C88.3559 24.2625 88.3916 24.0733 88.3633 23.8881C88.335 23.703 88.2444 23.5331 88.1065 23.4064C87.9686 23.2797 87.7916 23.2038 87.6047 23.1913V23.1748Z" fill="white"/>
<path d="M70.8429 29.418L82.2384 40.8753C82.3096 40.9757 82.4024 41.0588 82.5099 41.1185C82.6175 41.1783 82.737 41.2132 82.8598 41.2206C82.9826 41.2281 83.1056 41.2079 83.2195 41.1616C83.3335 41.1153 83.4357 41.044 83.5185 40.953C83.6013 40.8621 83.6626 40.7537 83.698 40.6358C83.7334 40.518 83.7419 40.3937 83.723 40.2722C83.704 40.1506 83.658 40.0349 83.5884 39.9334C83.5188 39.832 83.4274 39.7474 83.3208 39.686L70.8429 29.3975C70.7688 29.488 70.9128 29.3563 70.8429 29.418Z" fill="white"/>
<path d="M67.9495 30.249L66.1799 46.6366C66.1726 46.7421 66.1864 46.8481 66.2205 46.9482C66.2545 47.0484 66.3081 47.1408 66.3782 47.2201C66.4483 47.2993 66.5334 47.3639 66.6287 47.4099C66.7239 47.456 66.8273 47.4827 66.933 47.4885C67.1452 47.4966 67.3524 47.4223 67.5112 47.2812C67.67 47.14 67.768 46.943 67.7849 46.7312L67.9495 30.2696V30.249Z" fill="white"/>
<path d="M65.5624 28.7797L51.6112 37.7636C51.4415 37.8909 51.3275 38.0788 51.2929 38.2882C51.2584 38.4975 51.3061 38.7121 51.426 38.8871C51.5533 39.0568 51.7412 39.1708 51.9505 39.2053C52.1599 39.2399 52.3744 39.1922 52.5495 39.0723L65.5459 28.7838C65.4801 28.7303 65.6035 28.8496 65.5624 28.7797Z" fill="white"/>
<path d="M64.6697 25.9401L49.3522 20.8493C49.1638 20.8374 48.9771 20.8905 48.8233 20.9999C48.6694 21.1092 48.5579 21.2681 48.5072 21.4499C48.4566 21.6317 48.47 21.8254 48.5451 21.9985C48.6203 22.1716 48.7527 22.3137 48.9201 22.4008L64.6697 25.9401C64.6779 25.8413 64.6533 26.0347 64.6697 25.9401Z" fill="white"/>
</g>
<path d="M23.5852 48.32C23.5852 48.7562 23.5852 52.3078 23.47 55.1804C23.4206 56.2792 24.1367 56.7401 24.0585 55.4685C23.8733 52.4231 23.5934 47.5299 23.5317 47.0772C23.5317 47.073 23.5852 48.2789 23.5852 48.32Z" fill="white"/>
<path d="M23.8407 57.2421L23.5279 56.275H22.5073L23.3304 55.6741L23.0176 54.707L23.8407 55.3038L24.6638 54.707L24.351 55.6741L25.1741 56.275H24.1576L23.8407 57.2421Z" fill="white"/>
<path d="M75.7648 31.2287C76.1434 31.4386 79.1559 33.2453 81.5264 34.805C82.4317 35.4017 83.1725 35.0272 82.0696 34.4511C79.3905 33.0642 75.0734 30.8254 74.6619 30.6484L75.7648 31.2287Z" fill="white"/>
<path d="M83.4686 35.5334L82.4892 35.3112L81.9706 36.1754L81.8801 35.1713L80.8965 34.949L81.8225 34.554L81.7319 33.5498L82.3945 34.307L83.3205 33.912L82.806 34.7762L83.4686 35.5334Z" fill="white"/>
<path d="M74.707 20.1165C75.0115 19.8078 77.6166 17.3879 79.8018 15.5237C80.6249 14.8076 80.4891 13.9722 79.6125 14.894C77.5096 17.1081 74.1226 20.6556 73.851 21.0054C73.8304 21.0054 74.6782 20.1453 74.707 20.1165Z" fill="white"/>
<path d="M81.0571 13.8401L80.5633 14.7332L81.2588 15.478L80.2587 15.2846L79.7649 16.1777L79.6414 15.1653L78.6414 14.9719L79.5632 14.5397L79.4397 13.5273L80.1353 14.2722L81.0571 13.8401Z" fill="white"/>
<path d="M20.1696 45.9904C19.8486 46.5913 17.0583 51.4063 14.6426 55.2007C13.7166 56.6534 14.3216 57.8387 15.2105 56.0567C17.3464 51.7767 20.7951 44.9204 21.0626 44.2578C21.075 44.2537 20.1984 45.9328 20.1696 45.9904Z" fill="#FFE504"/>
<path d="M13.5275 58.2907L13.8608 56.731L12.478 55.9326L14.0625 55.768L14.3958 54.2041L15.046 55.661L16.6305 55.4922L15.4452 56.5622L16.0996 58.0191L14.7127 57.2248L13.5275 58.2907Z" fill="#FFE504"/>
<path d="M74.5833 36.0721C74.9948 36.6194 78.1267 41.2163 80.5054 45.0354C81.4149 46.5005 82.7441 46.4635 81.5219 44.8914C78.5835 41.1217 73.8919 35.0432 73.4104 34.5206C73.4063 34.5082 74.5463 36.0186 74.5833 36.0721Z" fill="#FFE504"/>
<path d="M82.8144 47.3725L81.5468 46.4012L80.234 47.3066L80.7649 45.8004L79.5015 44.8291L81.0982 44.8703L81.6291 43.3682L82.0818 44.8991L83.6786 44.9403L82.3617 45.8456L82.8144 47.3725Z" fill="#FFE504"/>
<path d="M72.8882 13.487C73.131 12.8491 75.3245 7.72541 77.2629 3.67174C78.0078 2.12023 77.2629 1.0173 76.5962 2.89393C74.9953 7.39618 72.3943 14.6228 72.2092 15.3101C72.1968 15.3183 72.8635 13.5446 72.8882 13.487Z" fill="#FFE504"/>
<path d="M77.995 0.469727L77.8551 2.06239L79.3243 2.68381L77.7687 3.04186L77.6287 4.63452L76.8098 3.26409L75.2542 3.62213L76.2995 2.42043L75.4764 1.05L76.9456 1.67554L77.995 0.469727Z" fill="#FFE504"/>
<path d="M24.0258 29.3061C24.0752 28.627 24.6801 23.0918 25.3551 18.6431C25.6102 16.9393 24.5773 16.1039 24.4867 18.0957C24.2686 22.8696 23.8859 30.5366 23.9106 31.265C23.9023 31.2609 24.0217 29.3719 24.0258 29.3061Z" fill="#FFE504"/>
<path d="M25.1163 15.3672L25.4496 16.9269L27.034 17.0957L25.6513 17.894L25.9846 19.4538L24.7953 18.3838L23.4125 19.1822L24.0668 17.7253L22.8816 16.6553L24.466 16.824L25.1163 15.3672Z" fill="#FFE504"/>
<path d="M19.9842 30.8007C19.8237 30.3891 18.6261 27.0968 17.766 24.393C17.4368 23.3559 16.6219 23.1583 17.124 24.323C18.3257 27.0886 20.2476 31.5373 20.4575 31.9324C20.4575 31.9406 20.0007 30.8377 19.9842 30.8007Z" fill="white"/>
<path d="M16.721 22.5977L17.3425 23.3919L18.289 23.0462L17.7293 23.8817L18.3507 24.6759L17.3795 24.4002L16.8198 25.2356L16.7828 24.2274L15.8115 23.9516L16.7581 23.6059L16.721 22.5977Z" fill="white"/>
<path d="M7.53511 26.208C7.47338 26.2903 7.22234 26.6689 7.1853 26.7512C7.24703 26.8171 15.5766 32.7145 15.5519 32.6939C15.2927 32.4717 7.57627 26.2409 7.53511 26.208Z" fill="#D4428F"/>
<path d="M4.78634 24.4253L6.62181 25.1208L7.8482 23.5898L7.75766 25.5488L9.59313 26.2402L7.70005 26.7587L7.60951 28.7176L6.53127 27.0797L4.63818 27.5982L5.86457 26.0673L4.78634 24.4253Z" fill="#D4428F"/>
<g style="mix-blend-mode:overlay" opacity="0.24">
<path d="M13.5192 37.1459C12.8607 36.9731 7.52714 35.3928 3.2677 33.9318C1.62154 33.3762 0.629723 34.2446 2.57219 34.689C7.23083 35.7549 14.7085 37.504 15.4123 37.6069C15.4205 37.6151 13.585 37.1583 13.5192 37.1459Z" fill="white"/>
<path d="M0 33.5782L1.59678 33.5329L2.04536 32.002L2.58448 33.5041L4.17714 33.4588L2.91371 34.4342L3.44871 35.9363L2.13178 35.035L0.868351 36.0104L1.31693 34.4794L0 33.5782Z" fill="white"/>
<path d="M14.2684 41.3894C13.8568 41.4758 10.3834 42.0643 7.56436 42.4264C6.48612 42.5623 6.15689 43.3359 7.38328 43.0479C10.3176 42.3565 15.0379 41.2618 15.4659 41.126L14.2684 41.3894Z" fill="white"/>
<path d="M5.61743 43.134L6.50636 42.6649L6.33351 41.6689L7.05782 42.3727L7.95087 41.9035L7.5064 42.8048L8.2266 43.5085L7.23067 43.3645L6.78621 44.2699L6.61336 43.2781L5.61743 43.134Z" fill="white"/>
<path d="M7.53516 52.8303C7.601 52.9044 7.9467 53.2171 8.00431 53.2706C8.0825 53.2213 15.3709 46.081 15.3462 46.1016C15.0705 46.3033 7.56396 52.785 7.53516 52.8303Z" fill="white"/>
<path d="M5.27985 55.2004L6.28812 53.5213L5 52.0397L6.91366 52.4801L7.92194 50.7969L8.09479 52.7517L10.0085 53.192L8.20179 53.9616L8.37463 55.9164L7.08651 54.4349L5.27985 55.2004Z" fill="white"/>
</g>
<g style="mix-blend-mode:overlay" opacity="0.24">
<path d="M26.6761 22.2276C26.8366 21.6432 28.3017 16.9393 29.6392 13.1737C30.1536 11.7375 29.3964 10.8362 28.9808 12.5482C27.9807 16.6636 26.3469 23.2482 26.244 23.8779C26.2358 23.9108 26.6638 22.2647 26.6761 22.2276Z" fill="white"/>
<path d="M29.9933 10.3008L30.0139 11.7165L31.3637 12.1321L30.0304 12.5889L30.0509 14.0005L29.2032 12.8688L27.8657 13.3256L28.6805 12.1733L27.8286 11.0416L29.1826 11.4572L29.9933 10.3008Z" fill="white"/>
<path d="M21.067 22.8326C20.9846 22.4211 20.4414 18.9394 20.1245 16.1163C20.0011 15.038 19.2356 14.6964 19.5031 15.9269C20.1533 18.8695 21.1822 23.6063 21.3139 24.0384C21.3098 24.0466 21.0711 22.8738 21.067 22.8326Z" fill="white"/>
<path d="M19.4411 14.1572L19.9021 15.0544L20.8939 14.898L20.1819 15.61L20.6387 16.5071L19.7416 16.0503L19.0296 16.7623L19.186 15.7705L18.2888 15.3095L19.2847 15.1532L19.4411 14.1572Z" fill="white"/>
<path d="M10.231 17.5977C10.1528 17.6594 9.81944 17.9598 9.74536 18.0092C9.79063 18.0874 16.2312 26.0054 16.2148 25.9807C16.0378 25.7132 10.2721 17.6429 10.231 17.5977Z" fill="white"/>
<path d="M8.07454 15.1445L9.65486 16.3051L11.2475 15.161L10.6343 17.0253L12.2188 18.1817L10.2557 18.1735L9.6384 20.0377L9.04166 18.1694L7.07861 18.1611L8.67128 17.0129L8.07454 15.1445Z" fill="white"/>
</g>
<g style="mix-blend-mode:overlay" opacity="0.24">
<path d="M22.3513 51.4467C22.3513 52.0475 21.9892 56.9654 21.5488 60.9121C21.3842 62.4266 22.3266 63.1303 22.339 61.3648C22.3637 57.1383 22.4295 50.3396 22.3843 49.71C22.3884 49.7141 22.3513 51.389 22.3513 51.4467Z" fill="white"/>
<path d="M21.8696 63.813L21.5239 62.4426L20.1123 62.3479L21.3099 61.5948L20.9601 60.2285L22.0465 61.1298L23.2441 60.3767L22.7174 61.6895L23.8038 62.5949L22.3922 62.5002L21.8696 63.813Z" fill="white"/>
<path d="M27.668 49.5616C27.8409 49.9526 29.1701 53.2037 30.1373 55.8788C30.5035 56.8994 31.3266 57.0558 30.7834 55.924C29.4706 53.2079 27.3799 48.8332 27.1536 48.4463C27.1495 48.4381 27.6474 49.5246 27.668 49.5616Z" fill="white"/>
<path d="M31.2443 57.6278L30.594 56.8582L29.6598 57.2409L30.1907 56.3849L29.5364 55.6154L30.5158 55.8541L31.0467 54.998L31.1208 56.0022L32.1003 56.2409L31.1702 56.6236L31.2443 57.6278Z" fill="white"/>
</g>
<g style="mix-blend-mode:overlay" opacity="0.24">
<path d="M80.263 27.463C80.9338 27.5864 86.3703 28.7922 90.7202 29.9322C92.3664 30.3767 93.3253 29.4383 91.3581 29.1091C86.6378 28.3683 79.0572 27.1502 78.3452 27.0967C78.3205 27.1255 80.2013 27.4506 80.263 27.463Z" fill="white"/>
<path d="M94.0003 30.0763L92.4118 30.2327L92.0702 31.7924L91.4323 30.3274L89.8438 30.4837L91.0372 29.4261L90.3952 27.961L91.7739 28.7717L92.9632 27.71L92.6258 29.2697L94.0003 30.0763Z" fill="white"/>
<path d="M85.1521 11.3959C85.0781 11.326 84.7406 11.0379 84.6501 10.9844C84.5801 11.0379 77.8061 18.672 77.8267 18.6514C78.0777 18.4333 85.1151 11.4453 85.1521 11.3959Z" fill="white"/>
<path d="M87.2223 8.87373L86.3334 10.6228L87.7203 12.0097L85.7819 11.7051L84.893 13.4501L84.5844 11.5158L82.646 11.2072L84.395 10.3182L84.0864 8.37988L85.4733 9.76678L87.2223 8.87373Z" fill="white"/>
</g>
<g style="mix-blend-mode:overlay" opacity="0.24">
<path d="M67.7274 43.8707C67.7562 44.4715 67.8179 49.3977 67.7027 53.3814C67.6574 54.9041 68.6574 55.5255 68.5257 53.7683C68.2047 49.55 67.7027 42.7719 67.6204 42.1505C67.6204 42.1381 67.7232 43.8131 67.7274 43.8707Z" fill="white"/>
<path d="M68.2626 56.2334L67.8017 54.8959L66.3901 54.9206L67.5219 54.0687L67.0651 52.7353L68.2174 53.546L69.3491 52.6982L68.9335 54.0481L70.0899 54.8629L68.6783 54.8835L68.2626 56.2334Z" fill="white"/>
<path d="M73.7404 42.2661C73.8515 42.6777 74.6334 46.1058 75.1519 48.9002C75.3495 49.9702 76.1396 50.2541 75.7816 49.0483C74.9256 46.1675 73.5716 41.5048 73.4111 41.085C73.4111 41.0768 73.7321 42.2291 73.7404 42.2661Z" fill="white"/>
<path d="M75.9667 50.8053L75.4482 49.9452L74.4646 50.1715L75.1272 49.4102L74.6086 48.546L75.5346 48.941L76.1972 48.1797L76.1108 49.1838L77.0367 49.5748L76.0531 49.8012L75.9667 50.8053Z" fill="white"/>
</g>
<g style="mix-blend-mode:overlay" opacity="0.24">
<path d="M70.2625 17.4953C70.3489 16.8986 71.2214 12.0506 72.0938 8.16568C72.4231 6.6759 71.563 5.8734 71.3613 7.62656C70.8716 11.8284 70.065 18.5735 70.0403 19.2073C70.032 19.2155 70.2543 17.5529 70.2625 17.4953Z" fill="white"/>
<path d="M72.0853 5.25586L72.2829 6.6551L73.6739 6.90202L72.4022 7.51933L72.5956 8.91857L71.6162 7.90207L70.3486 8.51938L71.0112 7.27241L70.0317 6.2559L71.4227 6.50283L72.0853 5.25586Z" fill="white"/>
</g>
<path d="M88.6376 18.9146C88.6005 18.8241 88.3865 18.4208 88.3372 18.3467C88.2466 18.3467 79.0528 22.7995 79.0816 22.7913C79.3985 22.6761 88.6088 18.9475 88.6376 18.9146Z" fill="#D4428F"/>
<path d="M91.5224 17.3833L90.0285 18.655L90.7734 20.4699L89.1025 19.441L87.6086 20.7127L88.0737 18.8031L86.4028 17.7743L88.3576 17.6261L88.8227 15.7207L89.5676 17.5356L91.5224 17.3833Z" fill="#D4428F"/>
<path d="M68.8013 25.3633H24.927V35.3143H68.8013V25.3633Z" fill="#FDE506"/>
<path d="M22.5401 9.14551L27.0341 16.7878L20.6223 11.8617L22.5401 9.14551Z" fill="#21090D"/>
<path d="M21.2847 12.0254L22.7662 9.93066L26.2355 15.828L21.2847 12.0254Z" fill="#E95C22"/>
<path d="M20.754 13.7334L19.614 16.8035L27.1164 17.4167L20.754 13.7334Z" fill="#21090D"/>
<path d="M20.1367 16.5986L21.0133 14.2363L25.9065 17.0718L20.1367 16.5986Z" fill="#FFE814"/>
<path d="M71.5917 27.401H22.8035C23.2151 24.9729 21.5689 22.0509 16.5234 18.6146C29.5899 21.7052 32.5488 18.5528 29.7174 9.21909C43.0472 16.1824 46.0679 9.98867 47.1997 3.42871C48.3273 9.98867 51.3521 16.1865 64.6819 9.21909C61.8588 18.5611 64.8095 21.7052 77.8759 18.6146C72.8181 22.0715 71.1719 24.9729 71.5917 27.401Z" fill="#21090D"/>
<path d="M69.8385 27.4005H24.569C24.9477 25.1535 23.4208 22.462 18.7622 19.2602C30.8821 22.1698 33.6435 19.2602 31.0426 10.5767C43.0925 16.9268 46.0803 11.6179 47.212 5.7041C48.3437 11.6179 51.3274 16.9268 63.3814 10.5767C60.7805 19.252 63.5419 22.1698 75.6618 19.2602C70.9908 22.4662 69.464 25.1453 69.8385 27.4005Z" fill="#FDE506"/>
<path d="M72.7318 35.3594H20.7048C21.1534 37.9521 19.4002 41.0428 14.009 44.726C27.9397 41.4337 31.0962 44.796 28.0755 54.747C42.286 47.3187 45.5125 53.924 46.7142 60.9202C47.92 53.924 51.1423 47.3187 65.3569 54.747C62.3362 44.796 65.4928 41.4337 79.4234 44.726C74.0363 41.0428 72.2832 37.9521 72.7318 35.3594Z" fill="#21090D"/>
<path d="M70.8589 35.3594H22.5811C22.9926 37.7545 21.3465 40.6189 16.3833 44.0388C29.3098 40.9358 32.2523 44.0388 29.4785 53.2984C42.3268 46.5286 45.5286 52.1873 46.718 58.4921C47.9279 52.1873 51.1132 46.5286 63.9574 53.2984C61.1877 44.0511 64.1302 40.9522 77.0526 44.0388C72.0853 40.6189 70.4597 37.7545 70.8589 35.3594Z" fill="#FDE506"/>
<path d="M71.8055 54.9621L66.8711 47.5996L73.5627 52.143L71.8055 54.9621Z" fill="#21090D"/>
<path d="M72.8877 52.0153L71.5338 54.1924L67.7229 48.5049L72.8877 52.0153Z" fill="#E95C22"/>
<path d="M73.324 50.2785L74.2788 47.1467L66.7559 46.9697L73.324 50.2785Z" fill="#21090D"/>
<path d="M73.7687 47.3809L73.0361 49.7926L67.9824 47.2451L73.7687 47.3809Z" fill="#FFE814"/>
<path d="M45.3972 16.9149C45.3968 16.6308 45.4785 16.3527 45.6326 16.1139C45.7866 15.8752 46.0064 15.6861 46.2655 15.5694C46.5245 15.4528 46.8118 15.4135 47.0926 15.4563C47.3735 15.4991 47.636 15.6222 47.8485 15.8108C48.061 15.9994 48.2144 16.2454 48.2903 16.5192C48.3662 16.793 48.3613 17.0829 48.2762 17.354C48.1911 17.6251 48.0295 17.8657 47.8108 18.0471C47.592 18.2284 47.3255 18.3426 47.0434 18.3759C46.9917 18.3819 46.944 18.4065 46.9091 18.4452C46.8743 18.4838 46.8547 18.5338 46.8541 18.5858V19.5159" stroke="#881811" stroke-width="1.12955" stroke-linecap="round" stroke-linejoin="round"/>
<path d="M46.8538 19.4414C50.8828 19.4414 61.1096 21.6185 63.4595 23.3552C63.5768 23.4421 63.6759 23.5513 63.751 23.6766C63.8261 23.8019 63.8758 23.9407 63.8972 24.0852C63.9186 24.2297 63.9113 24.377 63.8758 24.5186C63.8402 24.6603 63.777 24.7935 63.6899 24.9108C63.5876 25.0516 63.4532 25.166 63.298 25.2448C63.1427 25.3235 62.9709 25.3641 62.7969 25.3635C62.5583 25.3638 62.326 25.2873 62.1343 25.1454C60.3153 23.7996 50.6441 21.6678 46.8538 21.6678C43.0635 21.6678 33.3923 23.7996 31.5733 25.1454C31.3834 25.2878 31.1522 25.3644 30.9148 25.3635C30.6798 25.365 30.4504 25.2919 30.2596 25.1548C30.0687 25.0177 29.9262 24.8236 29.8526 24.6005C29.7789 24.3773 29.778 24.1365 29.8498 23.9128C29.9216 23.689 30.0625 23.4938 30.2522 23.3552C32.6021 21.6185 42.8248 19.4414 46.8538 19.4414Z" stroke="#881811" stroke-width="1.12955" stroke-linecap="round" stroke-linejoin="round"/>
<path d="M54.5002 30.1128L56.1258 23.1084" stroke="#881811" stroke-width="1.12955" stroke-linecap="round" stroke-linejoin="round"/>
<path d="M39.2117 30.1128L37.582 23.1084" stroke="#881811" stroke-width="1.12955" stroke-linecap="round" stroke-linejoin="round"/>
<path d="M14.3955 38.2652L13.7083 27.9849L17.4862 27.6763C18.2656 27.5876 19.0549 27.6562 19.8073 27.8779C20.4011 28.0536 20.9277 28.4051 21.3176 28.8862C21.6862 29.3461 21.9654 29.8709 22.1407 30.4336C22.3295 31.0923 22.4441 31.7701 22.4823 32.4543C22.5376 33.1244 22.5113 33.7988 22.4041 34.4626C22.3008 35.0426 22.096 35.5999 21.7991 36.1087C21.475 36.6411 21.0051 37.0696 20.4452 37.3434C19.7443 37.6819 18.9835 37.8791 18.2064 37.9236L14.3955 38.2652ZM17.2763 35.1457L18.301 35.0593C18.4948 35.0423 18.679 34.9678 18.8301 34.8454C18.9811 34.7229 19.0921 34.5581 19.1488 34.372C19.3366 33.8335 19.4013 33.2598 19.3381 32.693C19.2352 31.1744 18.7743 30.4459 17.9636 30.5118L16.9635 30.5941L17.2763 35.1457Z" fill="#FAB714"/>
<path d="M30.5816 39.7879L27.4991 39.471L27.7584 35.9153L25.7789 35.7096L25.5237 39.2653L22.429 38.9443L23.1738 28.6846L26.2686 29.0015L26.0011 32.6765L27.9765 32.8782L28.244 29.2072L31.3265 29.5241L30.5816 39.7879Z" fill="#FAB714"/>
<path d="M40.3394 37.9031L37.1253 37.9854L36.7137 36.3393L34.4132 36.3969L34.1252 38.0677L30.9563 38.15L33.4626 27.7833L37.3393 27.6846L40.3394 37.9031ZM36.0553 33.9441L35.6808 32.2979L35.3886 30.8329L35.1993 32.3103L34.9235 33.9565L36.0553 33.9441Z" fill="#FAB714"/>
<path d="M51.4221 38.7635L48.4467 38.8417L48.2368 35.0967V33.4053L47.8252 35.1091L47.1421 37.0803L45.1091 37.1338L44.3189 35.2161L43.8209 33.5946L43.9279 35.2408L43.895 38.9899L40.9072 39.064L41.0266 28.7755L44.4835 28.6849L45.7181 32.0225L45.998 32.9773L46.2408 31.9814L47.2985 28.615L50.7554 28.5244L51.4221 38.7635Z" fill="#FAB714"/>
<path d="M61.262 36.9815L58.0561 37.2449L57.5746 35.5988L55.2782 35.7881L55.0642 37.4713L51.9036 37.7346L53.9613 27.228L57.8298 26.9111L61.262 36.9815ZM56.8132 33.2777L56.3688 31.6768L56.0149 30.2323L55.8873 31.7303L55.6815 33.3764L56.8132 33.2777Z" fill="#FAB714"/>
<path d="M70.1759 38.2866L66.8589 38.3731L65.2127 34.8708H64.5872L64.6777 38.4101L61.5788 38.4883L61.3154 28.1998L64.4184 28.1216L64.5172 32.0271C64.7897 31.9082 65.0537 31.7707 65.3074 31.6156C65.4977 31.2731 65.6482 30.9099 65.756 30.5332C65.9576 29.9365 66.1387 29.3768 66.291 28.85L66.5132 28.0557L69.5668 27.9775C69.4209 28.7879 69.2131 29.5859 68.9454 30.3645C68.6576 31.3302 68.2744 32.2649 67.8013 33.1547L70.1759 38.2866Z" fill="#FAB714"/>
<path d="M79.6536 37.2903L76.4354 37.3726L76.0238 35.7264L73.7233 35.784L73.4353 37.4549L70.2705 37.5331L72.7644 27.1622L76.6453 27.0635L79.6536 37.2903ZM75.3654 33.3312L74.995 31.7098L74.7028 30.2447L74.5094 31.7303L74.2336 33.3765L75.3654 33.3312Z" fill="#FAB714"/>
<path d="M15.4493 36.6237C15.2821 36.6229 15.1215 36.558 15.0005 36.4424C14.8796 36.3269 14.8075 36.1694 14.7991 36.0023L14.3505 25.7138C14.3427 25.542 14.4033 25.3741 14.519 25.2468C14.6347 25.1195 14.7961 25.0433 14.9678 25.0347L18.754 24.8166C18.931 24.8166 19.1079 24.8166 19.2808 24.8166C19.9798 24.8027 20.676 24.9099 21.3385 25.1335C22.0409 25.3629 22.6586 25.7972 23.1122 26.3805C23.515 26.916 23.8151 27.5216 23.997 28.1666C24.182 28.8769 24.2869 29.6058 24.3098 30.3395C24.3504 31.0641 24.3034 31.7909 24.1699 32.5042C24.0356 33.1634 23.7877 33.7942 23.4373 34.3685C23.0399 35.0011 22.4683 35.5055 21.7912 35.8212C21.0048 36.1784 20.1562 36.3783 19.2931 36.4097L15.4493 36.6237ZM19.0586 32.2408H19.4248C19.4989 32.2408 19.61 32.2408 19.7253 31.961C19.8806 31.5119 19.934 31.034 19.8816 30.5617C19.8611 30.0802 19.7623 28.965 19.2849 28.965L18.8734 28.9897L19.0586 32.2408Z" fill="#E95C22"/>
<path d="M19.2806 25.4501C19.8996 25.4374 20.5162 25.5307 21.1038 25.7259C21.6954 25.9227 22.2134 26.2944 22.5894 26.7918C22.9404 27.264 23.2013 27.797 23.359 28.3639C23.5315 29.0258 23.6295 29.7049 23.6512 30.3886C23.6886 31.0609 23.6444 31.7353 23.5195 32.397C23.4037 32.9797 23.1849 33.5371 22.8734 34.0431C22.538 34.5722 22.0562 34.9925 21.4865 35.253C20.7785 35.5757 20.0131 35.7534 19.2354 35.7757L15.4492 35.9938L15.0047 25.7053L18.7909 25.4913C18.9555 25.4913 19.1201 25.4913 19.2806 25.4913M18.4123 32.969L19.4411 32.9114C19.6356 32.8982 19.8217 32.8274 19.9757 32.7079C20.1296 32.5884 20.2444 32.4257 20.3054 32.2406C20.5043 31.716 20.583 31.1535 20.5358 30.5944C20.4741 29.1129 20.0585 28.3762 19.3012 28.3762H19.2313L18.2353 28.3721L18.4329 32.9278M19.3012 24.1456C19.116 24.1456 18.9267 24.1456 18.7333 24.1456L14.943 24.376C14.5991 24.3941 14.2763 24.5475 14.045 24.8027C13.8137 25.0579 13.6927 25.3942 13.7084 25.7382L14.1529 36.0267C14.1708 36.3605 14.3161 36.6746 14.5588 36.9043C14.8016 37.134 15.1232 37.2618 15.4574 37.2614H15.5315L19.3177 37.0432C20.268 37.01 21.2023 36.789 22.0668 36.393C22.8588 36.0233 23.5275 35.4332 23.9928 34.6933C24.3856 34.061 24.6642 33.3645 24.8159 32.6356C24.9615 31.8711 25.014 31.0917 24.9723 30.3146C24.9481 29.5303 24.8335 28.7514 24.6307 27.9935C24.4327 27.2724 24.1004 26.5953 23.6512 25.9975C23.1139 25.2912 22.3726 24.7668 21.5277 24.4954C20.8001 24.2504 20.0359 24.1321 19.2683 24.1456H19.3012Z" fill="#FFE500"/>
<path d="M31.5938 38.5619H31.5115L28.4373 38.1504C28.269 38.1287 28.1159 38.0421 28.0105 37.9091C27.9052 37.7761 27.856 37.6072 27.8735 37.4384L28.1616 34.5206L27.4825 34.4341L27.2027 37.3149C27.1874 37.4768 27.1123 37.6273 26.992 37.7368C26.8718 37.8464 26.7151 37.9072 26.5525 37.9075H26.466L23.3836 37.496C23.2154 37.4734 23.0625 37.3867 22.9567 37.254C22.8509 37.1214 22.8004 36.953 22.8157 36.784L23.8239 26.5408C23.8448 26.3829 23.9222 26.238 24.0418 26.1328C24.1613 26.0277 24.315 25.9694 24.4742 25.9688H24.5565L27.6389 26.3803C27.8075 26.402 27.9611 26.4884 28.0671 26.6213C28.1731 26.7541 28.2232 26.9231 28.2069 27.0923L27.9105 30.1253L28.5855 30.2158L28.8777 27.2198C28.8922 27.0579 28.9671 26.9074 29.0876 26.7984C29.2082 26.6893 29.3654 26.6296 29.5279 26.6313H29.6143L32.6844 27.0429C32.8524 27.0635 33.0055 27.1492 33.1109 27.2816C33.2164 27.414 33.2657 27.5824 33.2482 27.7507L32.2276 37.9734C32.2187 38.0599 32.1926 38.1437 32.1509 38.2201C32.1093 38.2964 32.0528 38.3636 31.9848 38.4179C31.8743 38.5083 31.7366 38.559 31.5938 38.5619Z" fill="#E95C22"/>
<path d="M24.4741 26.6188L27.5566 27.0303L27.1985 30.693L29.1698 30.9482L29.5278 27.2855L32.6021 27.697L31.5938 37.9032L28.5237 37.4917L28.8694 33.9442L26.8981 33.689L26.5524 37.2365L23.4659 36.825L24.4741 26.5858M24.4741 25.2812C24.1446 25.2814 23.8274 25.4063 23.5862 25.6307C23.3449 25.8551 23.1976 26.1626 23.1737 26.4912L22.1654 36.7303C22.1337 37.0685 22.2344 37.4058 22.4462 37.6713C22.658 37.9368 22.9645 38.1099 23.3012 38.1542L26.3837 38.5658H26.5524C26.8513 38.5688 27.1421 38.4685 27.3755 38.2818L27.4413 38.2283C27.5445 38.3866 27.6807 38.5208 27.8405 38.6217C28.0003 38.7225 28.18 38.7877 28.3673 38.8127L31.4374 39.2242C31.4936 39.2283 31.5499 39.2283 31.6061 39.2242C31.9304 39.2248 32.2433 39.1045 32.4837 38.8869C32.7241 38.6693 32.8749 38.37 32.9066 38.0472L33.9107 27.8081C33.9455 27.4676 33.8451 27.127 33.6311 26.8599C33.417 26.5927 33.1066 26.4204 32.7667 26.3801L29.6966 25.9685C29.6404 25.9644 29.584 25.9644 29.5278 25.9685C29.229 25.9655 28.9382 26.0658 28.7048 26.2525L28.6389 26.306C28.5361 26.1477 28.4 26.0137 28.2401 25.9135C28.0801 25.8133 27.9002 25.7492 27.7129 25.7257L24.6264 25.3142H24.4618L24.4741 25.2812Z" fill="#FFE500"/>
<path d="M38.1787 36.9398C38.0303 36.9397 37.8862 36.8891 37.7703 36.7964C37.6544 36.7037 37.5735 36.5743 37.5408 36.4295L37.2856 35.2772H36.051L35.8247 36.413C35.7952 36.5615 35.715 36.6952 35.5979 36.7913C35.4809 36.8874 35.3341 36.9398 35.1827 36.9398H32.0179C31.9177 36.9401 31.8187 36.9172 31.7288 36.873C31.6388 36.8287 31.5603 36.7643 31.4994 36.6846C31.4387 36.6047 31.3968 36.5122 31.3768 36.4138C31.3569 36.3155 31.3594 36.2139 31.3842 36.1167L34.1456 25.8282C34.1834 25.6901 34.2655 25.5682 34.3792 25.4813C34.4929 25.3943 34.6321 25.347 34.7753 25.3467H38.6561C38.8001 25.3458 38.9404 25.3932 39.0545 25.4812C39.1685 25.5692 39.2499 25.6927 39.2857 25.8323L42.0348 36.1208C42.0606 36.2175 42.0639 36.3189 42.0444 36.4171C42.0249 36.5152 41.9831 36.6076 41.9223 36.6871C41.8615 36.7666 41.7833 36.8311 41.6936 36.8756C41.6039 36.9202 41.5053 36.9435 41.4052 36.9439L38.1787 36.9398Z" fill="#E95C22"/>
<path d="M38.6478 25.9689L41.3969 36.2574H38.1787L37.8083 34.6112H35.5201L35.1868 36.2574H32.022L34.7794 25.9689H38.6602M36.0922 32.2078H37.2239L36.8906 30.5616L36.6395 29.0883L36.4091 30.5616L36.0922 32.2078ZM38.6602 24.6643H34.7794C34.4925 24.6652 34.2138 24.7603 33.9863 24.935C33.7587 25.1098 33.5949 25.3544 33.5201 25.6314L30.7586 35.9199C30.7069 36.1137 30.7004 36.3167 30.7396 36.5134C30.7789 36.7101 30.8628 36.8951 30.9849 37.0542C31.107 37.2133 31.264 37.3422 31.4438 37.4309C31.6237 37.5197 31.8215 37.5659 32.022 37.5661H35.1868C35.4897 37.5662 35.7832 37.4612 36.0173 37.2691C36.2515 37.077 36.4117 36.8096 36.4708 36.5125L36.5901 35.9034H36.7548L36.8988 36.5413C36.9633 36.8317 37.1249 37.0914 37.3568 37.2777C37.5887 37.464 37.8771 37.5657 38.1746 37.5661H41.3928C41.5933 37.5661 41.7911 37.5199 41.9708 37.4312C42.1506 37.3424 42.3074 37.2134 42.4292 37.0541C42.551 36.8949 42.6345 36.7098 42.6732 36.5131C42.7118 36.3164 42.7046 36.1134 42.6521 35.9199L39.9072 25.6314C39.8329 25.353 39.6688 25.1069 39.4403 24.9313C39.2119 24.7557 38.9319 24.6604 38.6437 24.6602L38.6602 24.6643Z" fill="#FFE500"/>
<path d="M49.4752 38.0677C49.3051 38.0678 49.1417 38.0017 49.0196 37.8834C48.8975 37.7651 48.8262 37.6039 48.8208 37.4339L48.7756 35.9442C48.7175 36.0407 48.6354 36.1206 48.5373 36.1761C48.4393 36.2316 48.3285 36.2609 48.2159 36.261H46.1787C46.0676 36.2607 45.9584 36.2322 45.8612 36.1782C45.7641 36.1242 45.6822 36.0465 45.6232 35.9524L45.5738 37.4381C45.5674 37.6073 45.4956 37.7674 45.3736 37.8849C45.2516 38.0023 45.0888 38.0678 44.9194 38.0677H41.9316C41.844 38.0684 41.7571 38.0511 41.6763 38.0171C41.5954 37.9831 41.5224 37.933 41.4616 37.8699C41.4007 37.8067 41.3534 37.7319 41.3224 37.6499C41.2914 37.5678 41.2775 37.4804 41.2814 37.3928L41.66 27.1043C41.6674 26.9354 41.7395 26.7758 41.8613 26.6586C41.9831 26.5414 42.1453 26.4755 42.3144 26.4746H45.7754C45.9113 26.4748 46.0438 26.5173 46.1544 26.5963C46.265 26.6752 46.3483 26.7865 46.3927 26.915L47.187 29.2278L47.9772 26.915C48.0224 26.7862 48.1064 26.6747 48.2178 26.5958C48.3291 26.5169 48.4622 26.4746 48.5986 26.4746H52.0555C52.2246 26.4755 52.3868 26.5414 52.5086 26.6586C52.6304 26.7758 52.7025 26.9354 52.7099 27.1043L53.1214 37.3928C53.1259 37.5715 53.0593 37.7446 52.9362 37.8743C52.8753 37.9371 52.8024 37.9869 52.7218 38.0209C52.6412 38.0548 52.5545 38.0721 52.4671 38.0718L49.4752 38.0677Z" fill="#E95C22"/>
<path d="M52.0557 27.1128L52.4673 37.4013H49.4918L49.3766 33.6522L49.4383 31.9608L48.9692 33.6522L48.2325 35.5906H46.1789L45.4423 33.6522L44.9855 32.006L45.0472 33.6522L44.9196 37.4013H41.9318L42.3146 27.1128H45.7756L46.932 30.4957L47.1872 31.4546L47.4506 30.4669L48.5988 27.1293H52.0557M52.0557 25.8206H48.5988C48.3265 25.8213 48.0613 25.907 47.84 26.0656C47.6187 26.2241 47.4523 26.4478 47.3642 26.7054L47.1872 27.2034L47.0102 26.6889C46.9214 26.4321 46.7547 26.2093 46.5335 26.0515C46.3123 25.8937 46.0474 25.8087 45.7756 25.8082H42.3146C41.9763 25.808 41.6511 25.9393 41.4077 26.1742C41.1643 26.4092 41.0217 26.7295 41.01 27.0676L40.6272 37.3561C40.6212 37.5314 40.6504 37.7061 40.7132 37.8698C40.776 38.0336 40.8711 38.1831 40.9927 38.3094C41.1144 38.4357 41.2603 38.5362 41.4216 38.6051C41.5829 38.6739 41.7564 38.7096 41.9318 38.71H44.9196C45.2587 38.7092 45.5843 38.5772 45.8282 38.3417C46.0722 38.1062 46.2156 37.7855 46.2283 37.4466V36.9034H48.1379V37.4425C48.1475 37.782 48.2892 38.1044 48.5328 38.3411C48.7764 38.5778 49.1028 38.7102 49.4424 38.71H52.4179C52.5946 38.7084 52.7691 38.6711 52.9311 38.6004C53.093 38.5297 53.239 38.427 53.3603 38.2985C53.4811 38.1706 53.5754 38.02 53.6375 37.8554C53.6997 37.6908 53.7286 37.5155 53.7225 37.3396L53.3109 27.0511C53.2981 26.7137 53.1551 26.3945 52.9118 26.1604C52.6685 25.9263 52.344 25.7957 52.0063 25.7959L52.0557 25.8206Z" fill="#FFE500"/>
<path d="M52.9612 37.0803C52.8663 37.0811 52.7724 37.0608 52.6863 37.021C52.6002 36.9811 52.524 36.9227 52.4632 36.8499C52.3977 36.7732 52.351 36.6823 52.3268 36.5845C52.3025 36.4866 52.3013 36.3844 52.3233 36.286L54.632 25.837C54.6631 25.6982 54.7385 25.5733 54.847 25.4812C54.9554 25.3892 55.0908 25.3349 55.2329 25.3267L59.1425 25.1045C59.2811 25.1045 59.4163 25.1482 59.5286 25.2295C59.6409 25.3108 59.7247 25.4255 59.768 25.5572L62.9575 35.6934C62.9862 35.7881 62.9931 35.888 62.9779 35.9858C62.9626 36.0835 62.9256 36.1766 62.8694 36.258C62.8133 36.3395 62.7395 36.4073 62.6536 36.4563C62.5676 36.5053 62.4718 36.5343 62.3731 36.5412L59.1219 36.7264C58.9778 36.7272 58.8376 36.6799 58.7235 36.5919C58.6094 36.5039 58.528 36.3803 58.4923 36.2408L58.1877 35.1173L56.9531 35.1872L56.7761 36.3437C56.7536 36.4916 56.6807 36.6273 56.5697 36.7278C56.4588 36.8283 56.3165 36.8874 56.1671 36.8951L52.9612 37.0803Z" fill="#E95C22"/>
<path d="M59.1426 25.7505L62.3361 35.8826L59.122 36.0678L58.6816 34.4216L56.3811 34.5533L56.1218 36.2283L52.9612 36.4094L55.2741 25.9686L59.1467 25.7505M56.8503 32.1417L57.9779 32.0758L57.5664 30.4667L57.2495 29.0099L57.0849 30.4914L56.8379 32.1376M59.1343 24.4541H59.0561L55.1835 24.6722C54.8992 24.6895 54.6281 24.7988 54.4114 24.9837C54.1946 25.1685 54.0438 25.4189 53.9818 25.697L51.6731 36.146C51.6313 36.3369 51.6328 36.5347 51.6775 36.7249C51.7221 36.9151 51.8088 37.0929 51.9311 37.2453C52.0535 37.3976 52.2084 37.5207 52.3845 37.6053C52.5606 37.69 52.7535 37.7341 52.9489 37.7345H53.0229L56.1836 37.5534C56.4852 37.5408 56.7731 37.424 56.9982 37.2229C57.2234 37.0218 57.3718 36.7488 57.4182 36.4505L57.517 35.8167H57.698L57.8627 36.4299C57.9377 36.7076 58.1022 36.9527 58.3305 37.1275C58.5589 37.3024 58.8385 37.3971 59.1261 37.3971H59.2002L62.4143 37.2119C62.6129 37.2012 62.8065 37.1451 62.98 37.048C63.1536 36.9508 63.3025 36.8151 63.4154 36.6513C63.5283 36.4876 63.6021 36.3001 63.6312 36.1033C63.6602 35.9065 63.6438 35.7057 63.5831 35.5163L60.3936 25.3801C60.3104 25.1171 60.1462 24.8872 59.9244 24.7231C59.7027 24.559 59.4348 24.4692 59.159 24.4664L59.1343 24.4541Z" fill="#FFE500"/>
<path d="M67.8916 38.0676C67.7624 38.0665 67.6365 38.0267 67.5301 37.9534C67.4237 37.88 67.3418 37.7764 67.2949 37.656L66.3854 35.5695V37.4132C66.3854 37.5861 66.317 37.7519 66.1952 37.8745C66.0734 37.9971 65.908 38.0665 65.7352 38.0676H62.628C62.4552 38.0665 62.2898 37.9971 62.168 37.8745C62.0462 37.7519 61.9778 37.5861 61.9778 37.4132V27.1247C61.9778 26.9519 62.0462 26.7861 62.168 26.6635C62.2898 26.5409 62.4552 26.4714 62.628 26.4704H65.7352C65.9059 26.4714 66.0694 26.5391 66.1909 26.6591C66.3124 26.779 66.3822 26.9417 66.3854 27.1124V29.3758V29.3429C66.5994 28.7667 66.7969 28.2112 66.9574 27.6967L67.1961 26.9189C67.2367 26.7857 67.3189 26.669 67.4308 26.586C67.5427 26.503 67.6783 26.4581 67.8175 26.458H70.8712C70.9642 26.4589 71.0561 26.4796 71.1405 26.5187C71.2249 26.5579 71.3 26.6146 71.3608 26.6851C71.4215 26.7556 71.4666 26.8383 71.4929 26.9276C71.5191 27.0169 71.5261 27.1107 71.5132 27.2029C71.3437 28.0436 71.107 28.8693 70.8053 29.6721C70.5075 30.5631 70.1386 31.4287 69.7024 32.2607L71.8095 37.1375C71.8538 37.2364 71.8721 37.3451 71.8627 37.4531C71.8534 37.5611 71.8166 37.6649 71.756 37.7548C71.6964 37.8444 71.6157 37.918 71.521 37.9689C71.4262 38.0199 71.3203 38.0467 71.2128 38.047L67.8916 38.0676Z" fill="#E95C22"/>
<path d="M70.8673 27.1124C70.7043 27.918 70.4773 28.7093 70.1883 29.4788C69.8694 30.438 69.4558 31.363 68.9536 32.2402L71.1924 37.4174H67.8713L66.3198 33.874H65.6983V37.4174H62.5912V27.1289H65.6983V31.0344C65.972 30.9246 66.2386 30.7982 66.4967 30.6558C66.6981 30.318 66.8583 29.9574 66.9741 29.5817C67.1922 28.9973 67.3857 28.4376 67.5544 27.9355L67.7931 27.1495H70.8467M70.8467 25.8408H67.7931C67.5888 25.8409 67.3874 25.889 67.2052 25.9812C67.0229 26.0735 66.8648 26.2072 66.7437 26.3717C66.6234 26.2073 66.4661 26.0735 66.2844 25.9813C66.1028 25.8891 65.902 25.8409 65.6983 25.8408H62.5912C62.4195 25.8408 62.2496 25.8746 62.091 25.9405C61.9325 26.0063 61.7885 26.1027 61.6673 26.2243C61.5461 26.3459 61.4501 26.4902 61.3847 26.649C61.3194 26.8077 61.2861 26.9778 61.2866 27.1495V37.438C61.2866 37.784 61.4241 38.1158 61.6687 38.3605C61.9134 38.6051 62.2452 38.7426 62.5912 38.7426H65.6983C65.9137 38.7427 66.1257 38.6894 66.3153 38.5874C66.5049 38.4854 66.6662 38.3379 66.7848 38.1582C66.9034 38.3379 67.0647 38.4854 67.2543 38.5874C67.444 38.6894 67.656 38.7427 67.8713 38.7426H71.1924C71.4088 38.7426 71.6217 38.6889 71.8122 38.5862C72.0026 38.4835 72.1645 38.3351 72.2833 38.1542C72.4021 37.9734 72.474 37.7659 72.4926 37.5503C72.5113 37.3348 72.476 37.118 72.39 36.9194L70.4022 32.3266C70.7917 31.55 71.1259 30.7469 71.4023 29.9233C71.722 29.0713 71.9712 28.1945 72.1472 27.3017C72.1758 27.1159 72.1637 26.926 72.1118 26.7452C72.0599 26.5645 71.9694 26.3971 71.8465 26.2547C71.7237 26.1123 71.5714 25.9983 71.4002 25.9204C71.229 25.8425 71.043 25.8027 70.8549 25.8037L70.8467 25.8408Z" fill="#FFE500"/>
<path d="M77.4973 37.3148C77.3489 37.3147 77.2049 37.2641 77.0889 37.1714C76.973 37.0787 76.8921 36.9493 76.8594 36.8045L76.6043 35.6522H75.3696L75.1433 36.788C75.1139 36.9358 75.0344 37.069 74.9182 37.165C74.8019 37.261 74.6561 37.3139 74.5054 37.3148H71.3242C71.2238 37.3152 71.1247 37.2924 71.0346 37.2481C70.9445 37.2039 70.8659 37.1394 70.8049 37.0596C70.7439 36.9799 70.7022 36.8872 70.6831 36.7886C70.6639 36.6901 70.6679 36.5885 70.6945 36.4917L73.4519 26.2032C73.4905 26.0648 73.5733 25.9428 73.6878 25.8558C73.8022 25.7689 73.9419 25.7218 74.0856 25.7217H77.9623C78.1068 25.7213 78.2472 25.7688 78.3619 25.8566C78.4765 25.9445 78.5589 26.0678 78.5961 26.2073L81.3411 36.4958C81.3678 36.5926 81.3717 36.6942 81.3525 36.7927C81.3334 36.8913 81.2917 36.984 81.2307 37.0637C81.1697 37.1435 81.0911 37.208 81.001 37.2523C80.9109 37.2965 80.8118 37.3193 80.7114 37.3189L77.4973 37.3148Z" fill="#E95C22"/>
<path d="M77.9621 26.3556L80.7112 36.6441H77.497L77.1267 34.9979H74.822L74.4928 36.6441H71.3239L74.0854 26.3556H77.9621ZM75.3941 32.5945H76.5258L76.1966 30.9484L75.9414 29.475L75.711 30.9484L75.3941 32.5945ZM77.9621 25.051H74.0854C73.7978 25.051 73.5182 25.1457 73.2898 25.3205C73.0614 25.4953 72.897 25.7405 72.8219 26.0181L70.0646 36.3066C70.0112 36.5002 70.0034 36.7034 70.0417 36.9005C70.08 37.0975 70.1634 37.283 70.2854 37.4425C70.4074 37.6019 70.5646 37.731 70.7448 37.8195C70.925 37.908 71.1232 37.9537 71.3239 37.9528H74.4928C74.795 37.9519 75.0875 37.8465 75.3208 37.6545C75.5541 37.4625 75.7138 37.1956 75.7727 36.8992L75.892 36.2902H76.0772L76.2171 36.928C76.2817 37.2184 76.4432 37.4781 76.6751 37.6644C76.907 37.8507 77.1955 37.9524 77.4929 37.9528H80.7112C80.912 37.9535 81.1103 37.9078 81.2905 37.8192C81.4708 37.7307 81.6282 37.6018 81.7504 37.4425C81.8727 37.2832 81.9565 37.0978 81.9954 36.9008C82.0343 36.7038 82.0272 36.5004 81.9746 36.3066L79.2255 26.0181C79.1512 25.7397 78.9871 25.4936 78.7587 25.318C78.5302 25.1424 78.2502 25.0471 77.9621 25.0469V25.051Z" fill="#FFE500"/>
<path d="M33.7012 44.5457L33.7342 43.7843C33.8775 43.8571 34.0318 43.9058 34.191 43.9284C34.4173 43.9734 34.6475 43.9968 34.8782 43.9983C35.0412 44.0027 35.2035 43.9747 35.3556 43.916C35.4099 43.8965 35.4568 43.8608 35.4899 43.8136C35.523 43.7665 35.5408 43.7103 35.5408 43.6526C35.5397 43.6059 35.5261 43.5603 35.5015 43.5205C35.477 43.4807 35.4422 43.4482 35.4009 43.4263C35.2922 43.359 35.1723 43.3116 35.047 43.2864C34.9071 43.2493 34.7507 43.2082 34.5902 43.1505C34.4324 43.0995 34.2784 43.0377 34.1292 42.9654C33.9848 42.8918 33.8626 42.781 33.7753 42.6444C33.6782 42.4923 33.6294 42.3144 33.6354 42.134C33.627 41.9801 33.6577 41.8266 33.7246 41.6877C33.7915 41.5488 33.8925 41.4291 34.0181 41.3398C34.3412 41.1369 34.7197 41.0404 35.1005 41.064C35.2753 41.064 35.45 41.0764 35.6231 41.1011C35.8001 41.1299 35.9359 41.1546 36.0347 41.1793C36.0965 41.1936 36.157 41.2128 36.2158 41.2369L36.1828 41.9612C36.0429 41.8978 35.8946 41.8548 35.7425 41.8336C35.5542 41.7954 35.3626 41.7761 35.1704 41.776C34.997 41.7702 34.8239 41.7967 34.6601 41.8542C34.6046 41.8692 34.5554 41.9018 34.5198 41.947C34.4842 41.9922 34.4641 42.0477 34.4626 42.1052C34.4633 42.1422 34.4731 42.1783 34.491 42.2106C34.509 42.2429 34.5345 42.2703 34.5655 42.2904C34.6495 42.3482 34.7428 42.3913 34.8412 42.418L35.2116 42.5209C35.3523 42.5548 35.4899 42.6002 35.6231 42.6567C35.7551 42.7097 35.8807 42.7773 35.9976 42.8584C36.1129 42.94 36.2062 43.0488 36.2693 43.1752C36.3446 43.3184 36.3814 43.4786 36.3763 43.6403C36.3763 44.3619 35.8879 44.7213 34.9112 44.7185C34.7102 44.7191 34.5094 44.7054 34.3103 44.6774C34.1587 44.6587 34.0087 44.6284 33.8617 44.5868L33.7012 44.5457Z" fill="#881811"/>
<path d="M39.4048 44.6647H36.845V41.1172H39.4048V41.8045H37.6639V42.5452H39.1743V43.2037H37.6639V43.9774H39.4048V44.6647Z" fill="#881811"/>
<path d="M42.2776 44.6647H39.9277V41.1172H40.7508V43.928H42.2859L42.2776 44.6647Z" fill="#881811"/>
<path d="M45.2734 44.6647H42.7136V41.1172H45.2734V41.8045H43.5326V42.5452H45.0429V43.2037H43.5326V43.9774H45.2734V44.6647Z" fill="#881811"/>
<path d="M48.2777 43.8825L48.3066 44.6027C48.1845 44.6398 48.059 44.6647 47.9321 44.6768C47.7385 44.7041 47.5432 44.7178 47.3477 44.7179C47.1108 44.7351 46.8729 44.7022 46.6495 44.6214C46.4262 44.5406 46.2223 44.4136 46.0513 44.2487C45.7354 43.8823 45.5758 43.4065 45.6068 42.9236C45.5771 42.4263 45.7407 41.9367 46.0637 41.5573C46.2336 41.3859 46.4385 41.2532 46.6643 41.168C46.8901 41.0828 47.1316 41.0471 47.3724 41.0634C47.561 41.0635 47.7495 41.0773 47.9362 41.1046C48.0618 41.117 48.1858 41.1418 48.3066 41.1787L48.2777 41.8988C48.0263 41.8191 47.7637 41.7802 47.4999 41.7836C46.788 41.7836 46.4299 42.1581 46.4299 42.903C46.4171 43.0521 46.4354 43.2022 46.4836 43.3439C46.5318 43.4856 46.6088 43.6157 46.7098 43.7261C46.9256 43.9036 47.2004 43.9932 47.4794 43.9771C47.7486 43.983 48.0173 43.9512 48.2777 43.8825Z" fill="#881811"/>
<path d="M50.4715 44.6647H49.6484V41.8209H48.6072V41.1172H51.5168V41.8209H50.4715V44.6647Z" fill="#881811"/>
<path d="M52.71 44.6647H51.887V41.1172H52.71V44.6647Z" fill="#881811"/>
<path d="M54.8624 44.7183C54.6344 44.735 54.4056 44.7012 54.1923 44.6194C53.9789 44.5376 53.7861 44.4098 53.6277 44.2451C53.3291 43.8675 53.1823 43.3919 53.2162 42.9117C53.1787 42.4209 53.3255 41.9338 53.6277 41.5454C53.9705 41.2382 54.4145 41.0684 54.8747 41.0684C55.3349 41.0684 55.7789 41.2382 56.1217 41.5454C56.4199 41.9248 56.5666 42.4014 56.5332 42.8829C56.5679 43.3695 56.4213 43.8518 56.1217 44.2368C55.9601 44.4048 55.7635 44.535 55.5458 44.6182C55.3281 44.7014 55.0948 44.7356 54.8624 44.7183ZM54.8912 44.027C55.455 44.027 55.7389 43.6442 55.7389 42.8788C55.7389 42.1133 55.455 41.7552 54.8953 41.7552C54.7729 41.747 54.6503 41.769 54.5383 41.8192C54.4264 41.8694 54.3285 41.9464 54.2533 42.0433C54.0968 42.2884 54.0206 42.576 54.0352 42.8664C54.0146 43.6648 54.2985 44.027 54.8624 44.027H54.8912Z" fill="#881811"/>
<path d="M60.0356 44.6647H59.2126L58.0314 42.8745L57.7434 42.3477L57.7886 42.8662V44.6647H57.019V41.1172H57.8421L59.0479 42.965L59.3196 43.5082L59.2743 42.821V41.1172H60.0397L60.0356 44.6647Z" fill="#881811"/>
</svg>
