<?xml version="1.0" encoding="UTF-8"?><svg id="Layer_1" xmlns="http://www.w3.org/2000/svg" xmlns:xlink="http://www.w3.org/1999/xlink" viewBox="0 0 1220 200"><defs><style>.cls-1{fill:url(#linear-gradient);}.cls-2{fill:#006bb7;}.cls-3{fill:#0092db;}.cls-4{fill:#e7f3ff;}.cls-5{fill:#fff259;}.cls-6{fill:#ffe700;}.cls-7{fill:#333;}.cls-8{fill:#bee3fc;}.cls-9{fill:#109eff;}.cls-10{fill:#606060;}.cls-11{fill:#5165a2;}.cls-12{fill:url(#linear-gradient-8);}.cls-13{fill:url(#linear-gradient-9);}.cls-14{fill:url(#linear-gradient-3);}.cls-15{fill:url(#linear-gradient-4);}.cls-16{fill:url(#linear-gradient-2);}.cls-17{fill:url(#linear-gradient-6);}.cls-18{fill:url(#linear-gradient-7);}.cls-19{fill:url(#linear-gradient-5);}.cls-20{fill:url(#linear-gradient-41);}.cls-21{fill:url(#linear-gradient-40);}.cls-22{fill:url(#linear-gradient-43);}.cls-23{fill:url(#linear-gradient-42);}.cls-24{fill:url(#linear-gradient-45);}.cls-25{fill:url(#linear-gradient-46);}.cls-26{fill:url(#linear-gradient-44);}.cls-27{fill:url(#linear-gradient-49);}.cls-28{fill:url(#linear-gradient-47);}.cls-29{fill:url(#linear-gradient-48);}.cls-30{fill:url(#linear-gradient-14);}.cls-31{fill:url(#linear-gradient-18);}.cls-32{fill:url(#linear-gradient-22);}.cls-33{fill:url(#linear-gradient-20);}.cls-34{fill:url(#linear-gradient-21);}.cls-35{fill:url(#linear-gradient-23);}.cls-36{fill:url(#linear-gradient-15);}.cls-37{fill:url(#linear-gradient-19);}.cls-38{fill:url(#linear-gradient-16);}.cls-39{fill:url(#linear-gradient-17);}.cls-40{fill:url(#linear-gradient-13);}.cls-41{fill:url(#linear-gradient-12);}.cls-42{fill:url(#linear-gradient-10);}.cls-43{fill:url(#linear-gradient-11);}.cls-44{fill:url(#linear-gradient-27);}.cls-45{fill:url(#linear-gradient-24);}.cls-46{fill:url(#linear-gradient-26);}.cls-47{fill:url(#linear-gradient-38);}.cls-48{fill:url(#linear-gradient-35);}.cls-49{fill:url(#linear-gradient-37);}.cls-50{fill:url(#linear-gradient-34);}.cls-51{fill:url(#linear-gradient-39);}.cls-52{fill:url(#linear-gradient-36);}.cls-53{fill:url(#linear-gradient-25);}.cls-54{fill:url(#linear-gradient-28);}.cls-55{fill:url(#linear-gradient-29);}.cls-56{fill:url(#linear-gradient-33);}.cls-57{fill:url(#linear-gradient-30);}.cls-58{fill:url(#linear-gradient-32);}.cls-59{fill:url(#linear-gradient-31);}</style><linearGradient id="linear-gradient" x1="390.71" y1="57.51" x2="800.22" y2="57.51" gradientUnits="userSpaceOnUse"><stop offset="0" stop-color="#33d8f3"/><stop offset="1" stop-color="#3392f3"/></linearGradient><linearGradient id="linear-gradient-2" y1="59.85" y2="59.85" xlink:href="#linear-gradient"/><linearGradient id="linear-gradient-3" y1="58.31" y2="58.31" xlink:href="#linear-gradient"/><linearGradient id="linear-gradient-4" y1="62.33" y2="62.33" xlink:href="#linear-gradient"/><linearGradient id="linear-gradient-5" y1="59.85" y2="59.85" xlink:href="#linear-gradient"/><linearGradient id="linear-gradient-6" y1="59.7" y2="59.7" xlink:href="#linear-gradient"/><linearGradient id="linear-gradient-7" y1="59.83" y2="59.83" xlink:href="#linear-gradient"/><linearGradient id="linear-gradient-8" y1="59.85" y2="59.85" xlink:href="#linear-gradient"/><linearGradient id="linear-gradient-9" y1="59.7" y2="59.7" xlink:href="#linear-gradient"/><linearGradient id="linear-gradient-10" y1="59.85" y2="59.85" xlink:href="#linear-gradient"/><linearGradient id="linear-gradient-11" y1="57.34" y2="57.34" xlink:href="#linear-gradient"/><linearGradient id="linear-gradient-12" y1="56.92" y2="56.92" xlink:href="#linear-gradient"/><linearGradient id="linear-gradient-13" y1="59.85" y2="59.85" xlink:href="#linear-gradient"/><linearGradient id="linear-gradient-14" y1="59.85" y2="59.85" xlink:href="#linear-gradient"/><linearGradient id="linear-gradient-15" y1="57.34" y2="57.34" xlink:href="#linear-gradient"/><linearGradient id="linear-gradient-16" y1="62.5" y2="62.5" xlink:href="#linear-gradient"/><linearGradient id="linear-gradient-17" y1="59.99" y2="59.99" xlink:href="#linear-gradient"/><linearGradient id="linear-gradient-18" y1="56.92" y2="56.92" xlink:href="#linear-gradient"/><linearGradient id="linear-gradient-19" y1="57.34" y2="57.34" xlink:href="#linear-gradient"/><linearGradient id="linear-gradient-20" y1="59.85" y2="59.85" xlink:href="#linear-gradient"/><linearGradient id="linear-gradient-21" y1="59.7" y2="59.7" xlink:href="#linear-gradient"/><linearGradient id="linear-gradient-22" y1="59.85" y2="59.85" xlink:href="#linear-gradient"/><linearGradient id="linear-gradient-23" y1="59.85" y2="59.85" xlink:href="#linear-gradient"/><linearGradient id="linear-gradient-24" y1="56.91" y2="56.91" xlink:href="#linear-gradient"/><linearGradient id="linear-gradient-25" y1="59.7" y2="59.7" xlink:href="#linear-gradient"/><linearGradient id="linear-gradient-26" y1="59.85" y2="59.85" xlink:href="#linear-gradient"/><linearGradient id="linear-gradient-27" y1="59.7" y2="59.7" xlink:href="#linear-gradient"/><linearGradient id="linear-gradient-28" y1="88.71" y2="88.71" xlink:href="#linear-gradient"/><linearGradient id="linear-gradient-29" y1="91.19" y2="91.19" xlink:href="#linear-gradient"/><linearGradient id="linear-gradient-30" y1="91.03" y2="91.03" xlink:href="#linear-gradient"/><linearGradient id="linear-gradient-31" y1="88.12" y2="88.12" xlink:href="#linear-gradient"/><linearGradient id="linear-gradient-32" y1="90.9" y2="90.9" xlink:href="#linear-gradient"/><linearGradient id="linear-gradient-33" y1="91.05" y2="91.05" xlink:href="#linear-gradient"/><linearGradient id="linear-gradient-34" y1="91.03" y2="91.03" xlink:href="#linear-gradient"/><linearGradient id="linear-gradient-35" y1="91.03" y2="91.03" xlink:href="#linear-gradient"/><linearGradient id="linear-gradient-36" y1="88.71" y2="88.71" xlink:href="#linear-gradient"/><linearGradient id="linear-gradient-37" y1="91.07" y2="91.07" xlink:href="#linear-gradient"/><linearGradient id="linear-gradient-38" y1="93.53" y2="93.53" xlink:href="#linear-gradient"/><linearGradient id="linear-gradient-39" y1="91.05" y2="91.05" xlink:href="#linear-gradient"/><linearGradient id="linear-gradient-40" y1="90.9" y2="90.9" xlink:href="#linear-gradient"/><linearGradient id="linear-gradient-41" y1="89.51" y2="89.51" xlink:href="#linear-gradient"/><linearGradient id="linear-gradient-42" y1="91.03" y2="91.03" xlink:href="#linear-gradient"/><linearGradient id="linear-gradient-43" y1="88.71" y2="88.71" xlink:href="#linear-gradient"/><linearGradient id="linear-gradient-44" y1="90.9" y2="90.9" xlink:href="#linear-gradient"/><linearGradient id="linear-gradient-45" y1="91.05" y2="91.05" xlink:href="#linear-gradient"/><linearGradient id="linear-gradient-46" y1="93.7" y2="93.7" xlink:href="#linear-gradient"/><linearGradient id="linear-gradient-47" y1="90.9" y2="90.9" xlink:href="#linear-gradient"/><linearGradient id="linear-gradient-48" y1="91.05" y2="91.05" xlink:href="#linear-gradient"/><linearGradient id="linear-gradient-49" y1="90.9" y2="90.9" xlink:href="#linear-gradient"/></defs><rect class="cls-4" y="-1.31" width="1220" height="202.62"/><g><g><g><g><path class="cls-6" d="M136.89,118.97c2.41,.47,4.83,.58,7.13,.31,5.59-.65,11.05-3.04,14.51-7.61,.08-.1-7.83,.71-7.74,.62,2.42-2.46,2.79-4.64,2.79-4.64l22.39-12.68,5.29,16.49c1.31-3.5,2.03-7.28,2.03-11.23,0-17.69-14.34-32.04-32.04-32.04-14.82,0-28.79,11.19-31.35,25.9-1.49,8.54,.61,17.68,5.81,24.64-1.77-3.86-3.54-7.71-5.31-11.57,2.88,6.28,9.59,10.48,16.49,11.82Z"/><path class="cls-11" d="M142.39,88.94c-.53-5.84,1.56-11.72,9.67-11.72,9.71,0,10.79,8.43,9.07,15.13,0,0,0,0,0,0-.71,2.78-1.91,5.26-3.17,6.71-1.75,2.01-4.05,2.94-5.9,2.94s-4.15-.93-5.9-2.94c-1.76-2.03-3.4-6.07-3.77-10.13Z"/><path class="cls-2" d="M154.45,109.13l4.58,2.06c-1.07,1.38-2.19,2.81-3.59,3.86-2.05,1.54-4.4,2.67-6.87,3.35-2.76,.76-5.72,1.02-8.56,.68-2.59-.3-5.22-1.21-7.57-2.38,0,0,0,0,0,0,0,0,0,0-.01,0,0,0,0,0-.01,0,0,0,0,0-.01,0,0,0,0,0,0,0-.07-.04-.15-.07-.22-.11-.06-.03-.13-.06-.19-.1-.65-.33-1.26-.68-1.83-1.04,.06-.51,.14-1,.22-1.48,.47-2.62,1.25-4.82,1.89-6.32,.57-1.33,1.63-2.42,2.98-3.06l8.56-3.54c.67-.28,1.44-.17,2.01,.28,.15,.12,.3,.23,.45,.34,1.75,1.26,3.79,1.97,5.78,1.97h0c2.19,0,4.44-.86,6.3-2.36,.53-.43,1.25-.55,1.9-.33l3.2,1.09-9.15,5.21c-.62,.36-.75,1.45,.14,1.9Z"/><path class="cls-2" d="M161.12,92.35s0,.01,0,.01c-.71,2.78-1.91,5.26-3.17,6.71-1.75,2.01-4.05,2.94-5.9,2.94-.57,0-1.18-.09-1.81-.27-1.41-.41-2.88-1.28-4.09-2.67-1.76-2.03-3.4-6.07-3.77-10.13-.53-5.84,1.56-11.72,9.67-11.72,2.36,0,4.21,.5,5.63,1.35,4.43,2.65,4.74,8.71,3.43,13.78Z"/><path class="cls-3" d="M154.45,109.13l4.58,2.06c-1.07,1.38-2.19,2.81-3.59,3.86-2.05,1.54-4.4,2.67-6.87,3.35-2.76,.76-5.72,1.02-8.56,.68-2.59-.3-5.22-1.21-7.57-2.38,0,0,.02-2.96,.84-5.8,.23-.7,.46-1.33,.69-1.88,0,0,0,0,0,0,.03-.08,.07-.16,.1-.24,.04-.1,.08-.2,.13-.3,.57-1.33,1.63-2.42,2.98-3.06l6.93-2.87c1.25-.52,2.66-.46,3.88,.12,1.31,.62,2.7,.96,4.07,.96h0c2.25,0,4.56-.91,6.45-2.49,.42-.35,1-.46,1.52-.28l3.42,1.16-9.15,5.21c-.62,.36-.75,1.45,.14,1.9Z"/><path class="cls-3" d="M161.12,92.35s0,.01,0,.01c-.71,2.78-1.91,5.26-3.17,6.71-1.75,2.01-4.05,2.94-5.9,2.94-.57,0-1.18-.09-1.81-.27-.77-.46-1.51-1.06-2.17-1.82-1.76-2.03-3.4-6.07-3.77-10.13-.53-5.84,1.56-11.72,9.67-11.72,.01,0,.03,0,.04,0,3.44,0,6.47,2.33,7.35,5.66,.7,2.68,.48,5.81-.25,8.63Z"/><path class="cls-2" d="M182.18,100.24c0,3.33-.52,6.53-1.48,9.54l-5.59-16.81c-3.11-10.26-12.61-17.73-23.86-17.73-13.12,0-23.88,10.17-24.86,23.07,0,0,0,0,0,0-.05,.64-.07,1.28-.07,1.92,0,5.04,1.49,9.77,4.05,13.72,.63,.97,1.32,1.89,2.07,2.75t0,0s0,0,0,0c0,0,0,0-.01,0,0,0,0,0-.01,0,0,0,0,0-.01,0,0,0,0,0,0,0-.03-.02-.08-.04-.09-.05-.05-.02-.09-.04-.14-.07-.72-.36-1.39-.74-2.03-1.14-7.63-4.82-9.17-12.4-9.34-13.28,0,0,0-.01,0-.02,0-.04-.01-.06-.01-.06-.67-4.14-.11-7.65,.31-9.46,0,0,0-.01,0-.02,.11-.43,.23-.86,.35-1.28,0,0,0,0,0,0,3.83-12.82,15.68-22.17,29.71-22.17,11.48,0,21.5,6.25,26.86,15.55,2.64,4.57,4.15,9.89,4.15,15.55Z"/><path class="cls-6" d="M182.65,119.72l-5.16-2.21c-5.26,8.03-14.09,13.58-24.39,14.24-17.4,1.12-32.41-12.12-33.53-29.57-.02-.28-.03-.55-.04-.83,1.13,11.87,11.87,20.75,24.32,19.95,7.74-.5,14.02-4.67,17.76-10.6l-5.58-2.39,19.09-10.92,7.52,22.31Z"/><path class="cls-5" d="M174.35,99.63c-.02,14.64-12.11,26.49-27.01,26.49-8.12,0-15.4-3.52-20.35-9.09,4.23,3.5,9.73,5.59,15.73,5.59,.54,0,1.09-.02,1.64-.05,7.74-.5,14.57-4.57,18.75-11.18l.94-1.49-4.37-1.87,14.67-8.39Z"/><path class="cls-3" d="M182.18,100.24c0,3.33-.52,6.53-1.48,9.54l-5.59-16.81c-3.11-10.26-12.61-17.73-23.86-17.73-13.12,0-23.88,10.17-24.86,23.07,.56-14.96,12.83-26.92,27.89-26.92,10.04,0,18.84,5.32,23.76,13.29,2.64,4.58,4.15,9.89,4.15,15.55Z"/><path class="cls-11" d="M134.06,108.78c-.03,.08-.06,.16-.1,.24,.03-.08,.07-.16,.1-.24Z"/></g><g><polygon class="cls-3" points="197.63 105.36 207.54 105.36 208.23 101.05 198.32 101.05 199.08 96.18 210.54 96.18 211.23 91.67 194.44 91.67 190.75 114.95 207.54 114.95 208.27 110.44 196.84 110.44 197.63 105.36"/><polygon class="cls-3" points="239.98 91.67 234.09 91.67 227.83 99.5 224.37 91.67 218.28 91.67 223.88 103.26 214.23 114.95 220.25 114.95 226.51 107.51 230.27 114.95 236.32 114.95 230.3 103.65 239.98 91.67"/><polygon class="cls-3" points="217.24 91.67 216.11 91.67 221.71 103.26 212.06 114.95 212.99 114.95 222.75 103.29 217.24 91.67"/><polygon class="cls-3" points="215.61 91.67 214.48 91.67 220.08 103.26 210.43 114.95 211.36 114.95 221.12 103.29 215.61 91.67"/><polygon class="cls-3" points="213.99 91.67 212.86 91.67 218.45 103.26 208.81 114.95 209.73 114.95 219.5 103.29 213.99 91.67"/><path class="cls-3" d="M257.78,93.28c-1.2-1.08-3.25-1.61-6.17-1.61h-9.55l-3.69,23.28h5.37l1.22-7.54h4.18c1.65,0,3.1-.19,4.35-.58,1.25-.38,2.26-.88,3.01-1.48,.76-.6,1.37-1.34,1.84-2.21,.47-.87,.8-1.72,.97-2.57,.18-.84,.26-1.76,.26-2.75,0-1.95-.6-3.47-1.79-4.54Zm-8.77,9.88h-3.72l1.15-7.24h3.72c1.3,0,2.21,.24,2.73,.71,.53,.47,.79,1.17,.79,2.09,0,2.96-1.56,4.45-4.68,4.45Z"/><polygon class="cls-3" points="276.34 114.95 259.54 114.95 263.23 91.67 280.02 91.67 279.33 96.18 267.87 96.18 267.11 101.05 277.03 101.05 276.34 105.36 266.42 105.36 265.63 110.44 277.06 110.44 276.34 114.95"/><path class="cls-3" d="M299.86,102.89c.87-1.49,1.3-3.19,1.3-5.1s-.61-3.46-1.83-4.53c-1.22-1.06-3.23-1.6-6.04-1.6h-9.85l-3.69,23.28h5.37l1.25-7.97h3.98l2.63,7.97h5.86l-3.19-8.76c1.93-.7,3.33-1.8,4.2-3.29Zm-9.2-.07h-3.62l1.09-6.92h3.72c1.4,0,2.39,.23,2.96,.68,.57,.45,.86,1.14,.86,2.06,0,2.79-1.67,4.18-5.01,4.18Z"/><polygon class="cls-3" points="312.36 114.95 306.99 114.95 309.96 96.28 303.07 96.28 303.8 91.67 322.9 91.67 322.17 96.28 315.32 96.28 312.36 114.95"/></g><g><path class="cls-3" d="M207.15,78.08c.39-.68,.58-1.42,.58-2.21,0-1.97-1.43-2.96-4.29-2.96h-5.97l-2.19,13.85h6.09c3.84,0,5.76-1.51,5.76-4.52,0-1.36-.6-2.25-1.8-2.66,.84-.31,1.45-.81,1.83-1.49Zm-3.77,5.71c-.39,.37-1.1,.56-2.12,.56h-2.43l.55-3.55h2.39c.78,0,1.34,.11,1.68,.33,.34,.22,.51,.58,.51,1.08,0,.68-.2,1.2-.59,1.58Zm-1.35-5.02h-2.31l.55-3.47h2.31c.71,0,1.22,.1,1.54,.31,.32,.21,.48,.55,.48,1.02,0,1.42-.86,2.13-2.57,2.13Z"/><path class="cls-3" d="M219.15,76.44l-1.65,10.32h-2.39l.08-2.19c-1.08,1.61-2.47,2.41-4.17,2.41-.91,0-1.6-.25-2.06-.76-.46-.51-.69-1.19-.69-2.04,0-.35,.03-.67,.08-.94l1.1-6.8h3.04l-.96,6.03c-.04,.2-.06,.41-.06,.63,0,.77,.27,1.16,.82,1.16,.43,0,.91-.24,1.45-.72,.54-.48,1.04-1.09,1.51-1.82l.84-5.27h3.06Z"/><path class="cls-3" d="M219.42,86.47l.53-2.55c.09,.1,.5,.23,1.23,.38,.73,.15,1.42,.23,2.06,.23,1.32,0,1.98-.33,1.98-.98,0-.23-.17-.42-.5-.57-.33-.14-.74-.26-1.21-.36-.48-.1-.95-.23-1.43-.39-.48-.16-.88-.44-1.21-.84-.33-.4-.5-.9-.5-1.52,0-1.17,.42-2.08,1.27-2.7,.85-.63,2.13-.94,3.84-.94,.56,0,1.11,.04,1.65,.11,.54,.07,.94,.15,1.22,.23,.28,.08,.46,.14,.54,.2l-.51,2.47c-.22-.14-.63-.27-1.21-.37-.59-.1-1.16-.16-1.7-.16-1.36,0-2.04,.31-2.04,.94,0,.22,.17,.4,.5,.53,.33,.13,.73,.25,1.2,.34,.47,.1,.94,.23,1.42,.39,.48,.16,.88,.44,1.21,.84,.33,.4,.5,.9,.5,1.52,0,1.27-.45,2.2-1.36,2.8-.91,.6-2.15,.9-3.73,.9-.6,0-1.21-.04-1.82-.12-.61-.08-1.07-.15-1.38-.23-.31-.07-.49-.12-.54-.15Z"/><g><polygon class="cls-3" points="232.53 86.76 229.49 86.76 231.12 76.44 234.15 76.44 232.53 86.76"/><path class="cls-3" d="M234.84,73.34c0,.55-.16,1-.49,1.35-.33,.35-.83,.53-1.51,.53-.99,0-1.49-.44-1.49-1.31,0-.55,.16-1,.49-1.35,.33-.35,.83-.53,1.51-.53,.99,0,1.49,.44,1.49,1.31Z"/></g><path class="cls-3" d="M234.7,86.76l1.65-10.32h2.39l-.08,2.19c1.08-1.61,2.47-2.41,4.17-2.41,.91,0,1.6,.25,2.06,.76,.46,.51,.69,1.19,.69,2.04,0,.35-.03,.67-.08,.94l-1.1,6.8h-3.04l.96-6.03c.04-.2,.06-.4,.06-.63,0-.77-.27-1.16-.82-1.16-.43,0-.91,.24-1.45,.72-.54,.48-1.04,1.09-1.51,1.82l-.84,5.27h-3.06Z"/><path class="cls-3" d="M256.75,79.34c0-.94-.33-1.69-.98-2.24-.65-.55-1.66-.83-3.04-.83-1.83,0-3.28,.61-4.36,1.84-1.08,1.23-1.62,2.74-1.62,4.54,0,1.41,.37,2.49,1.11,3.23,.74,.74,1.98,1.12,3.73,1.12,1.25,0,2.43-.17,3.53-.51l.47-2.49c-1.1,.38-2.16,.57-3.19,.57-.87,0-1.49-.13-1.85-.39-.36-.26-.57-.69-.64-1.29,.47,.04,.95,.06,1.45,.06,3.49,0,5.28-1.2,5.39-3.6Zm-6.68,1.63c.18-.74,.48-1.33,.89-1.74,.41-.42,.93-.63,1.56-.63,.39,0,.69,.09,.88,.28s.29,.43,.29,.73c0,.93-1,1.39-3,1.39-.29,0-.5-.01-.63-.04Z"/><path class="cls-3" d="M257.42,86.47l.53-2.55c.09,.1,.5,.23,1.23,.38s1.42,.23,2.06,.23c1.32,0,1.98-.33,1.98-.98,0-.23-.17-.42-.5-.57-.33-.14-.74-.26-1.21-.36-.48-.1-.95-.23-1.43-.39-.48-.16-.88-.44-1.21-.84-.33-.4-.5-.9-.5-1.52,0-1.17,.42-2.08,1.27-2.7s2.13-.94,3.84-.94c.56,0,1.11,.04,1.65,.11,.53,.07,.94,.15,1.22,.23,.28,.08,.46,.14,.54,.2l-.51,2.47c-.22-.14-.63-.27-1.21-.37-.59-.1-1.16-.16-1.7-.16-1.36,0-2.04,.31-2.04,.94,0,.22,.17,.4,.5,.53,.33,.13,.73,.25,1.2,.34,.47,.1,.94,.23,1.42,.39,.48,.16,.88,.44,1.21,.84,.33,.4,.5,.9,.5,1.52,0,1.27-.45,2.2-1.36,2.8-.91,.6-2.15,.9-3.73,.9-.6,0-1.21-.04-1.82-.12-.61-.08-1.07-.15-1.38-.23-.31-.07-.49-.12-.54-.15Z"/><path class="cls-3" d="M267.19,86.47l.53-2.55c.09,.1,.5,.23,1.23,.38s1.42,.23,2.06,.23c1.32,0,1.98-.33,1.98-.98,0-.23-.17-.42-.5-.57-.33-.14-.74-.26-1.21-.36-.48-.1-.95-.23-1.43-.39-.48-.16-.88-.44-1.21-.84-.33-.4-.5-.9-.5-1.52,0-1.17,.42-2.08,1.27-2.7s2.13-.94,3.84-.94c.56,0,1.11,.04,1.65,.11,.53,.07,.94,.15,1.22,.23,.28,.08,.46,.14,.54,.2l-.51,2.47c-.22-.14-.63-.27-1.21-.37-.59-.1-1.16-.16-1.7-.16-1.36,0-2.04,.31-2.04,.94,0,.22,.17,.4,.5,.53,.33,.13,.73,.25,1.2,.34,.47,.1,.94,.23,1.42,.39,.48,.16,.88,.44,1.21,.84,.33,.4,.5,.9,.5,1.52,0,1.27-.45,2.2-1.36,2.8-.91,.6-2.15,.9-3.73,.9-.6,0-1.21-.04-1.82-.12-.61-.08-1.07-.15-1.38-.23-.31-.07-.49-.12-.54-.15Z"/></g></g><g><path class="cls-7" d="M196.5,128.07h-1.26l.58-2.18h-1.87l-.58,2.18h-1.27l.59-2.18h-1.27l.14-.99h1.39l.53-1.93h-1.22l.16-.99h1.32l.6-2.25h1.28l-.61,2.25h1.87l.6-2.25h1.27l-.61,2.25h1.15l-.15,.99h-1.26l-.53,1.93h1.09l-.16,.99h-1.19l-.59,2.18Zm-.41-3.16l.52-1.93h-1.87l-.52,1.93h1.87Z"/><path class="cls-7" d="M203.66,128.07h-1.47l.51-3.14-2.11-5.18h1.58l1.25,3.08,.21,.81,.47-.81,2.2-3.08h1.62l-3.76,5.19-.49,3.13Z"/><path class="cls-7" d="M208.99,128.2c-.84,0-1.49-.23-1.96-.68-.47-.45-.7-1.09-.7-1.89,0-1.14,.31-2.07,.92-2.79s1.45-1.09,2.51-1.09c.88,0,1.57,.22,2.07,.66,.5,.44,.75,1.07,.75,1.88,0,1.2-.31,2.15-.94,2.86s-1.51,1.06-2.65,1.06Zm.16-1.2c.62,0,1.11-.23,1.46-.69,.36-.46,.54-1.07,.54-1.83,0-.52-.13-.9-.38-1.16-.25-.25-.59-.38-1.01-.38-.62,0-1.11,.22-1.48,.65-.36,.44-.55,1.04-.55,1.82,0,.53,.13,.92,.38,1.18,.25,.26,.6,.4,1.04,.41Z"/><path class="cls-7" d="M219.67,121.87l-.99,6.2h-1.13l.14-1.65c-.35,.56-.77,.99-1.24,1.31-.47,.31-.97,.47-1.49,.47s-.9-.15-1.16-.46c-.27-.31-.4-.72-.4-1.24,0-.2,.02-.39,.05-.55l.65-4.07h1.41l-.59,3.79c-.03,.2-.05,.34-.05,.44,0,.55,.2,.82,.6,.82,.35,0,.73-.21,1.16-.62,.43-.41,.82-.91,1.15-1.5l.46-2.93h1.42Z"/><path class="cls-7" d="M220.19,128.07l.98-6.2h1.14l-.13,1.59c.7-1.14,1.5-1.71,2.41-1.71h.11l-.28,1.44c-.78,0-1.55,.56-2.31,1.69l-.49,3.19h-1.42Z"/><path class="cls-7" d="M226.26,128.07h-1.48l1.32-8.32h3.31c.98,0,1.68,.19,2.09,.58,.42,.38,.62,.92,.62,1.61,0,.33-.03,.64-.09,.93-.06,.29-.18,.58-.35,.87s-.38,.54-.64,.75c-.26,.21-.6,.38-1.03,.51-.43,.13-.92,.19-1.46,.19h-1.82l-.46,2.88Zm.64-4.08h1.72c1.32,0,1.98-.6,1.98-1.81,0-.4-.11-.71-.34-.92-.22-.21-.61-.32-1.16-.32h-1.71l-.49,3.05Z"/><path class="cls-7" d="M234.02,128.2c-.57,0-1.02-.23-1.35-.69s-.49-1.05-.49-1.77c0-.47,.06-.93,.19-1.37s.33-.87,.61-1.28c.27-.41,.66-.74,1.16-.98,.5-.25,1.09-.37,1.75-.37,.8,0,1.65,.12,2.55,.35l-.95,5.98h-1.14l.15-1.51c-.78,1.09-1.6,1.64-2.48,1.64Zm.38-1.28c.31,0,.68-.21,1.11-.64,.42-.43,.79-.92,1.11-1.46l.26-1.72c-.3-.12-.67-.18-1.12-.18-.39,0-.73,.08-1.02,.25s-.51,.39-.66,.66-.26,.55-.34,.84c-.07,.29-.11,.57-.11,.86,0,.42,.07,.75,.21,1.01,.14,.26,.33,.38,.57,.38Z"/><path class="cls-7" d="M239,128.07l.98-6.2h1.14l-.13,1.59c.7-1.14,1.5-1.71,2.41-1.71h.11l-.28,1.44c-.78,0-1.55,.56-2.31,1.69l-.49,3.19h-1.42Z"/><path class="cls-7" d="M247.34,126.7l-.14,1.22c-.54,.19-1.04,.28-1.51,.28-1.06,0-1.59-.47-1.59-1.41l.05-.48,.52-3.29h-.81l.19-1.14h.84l.4-1.49h1.22l-.24,1.49h1.78l-.22,1.14h-1.73l-.49,3.15s-.01,.08-.01,.15c0,.24,.05,.4,.15,.48,.1,.09,.31,.13,.62,.13,.35,0,.68-.08,.98-.24Z"/><path class="cls-7" d="M248.33,128.07l.99-6.2h1.13l-.14,1.65c.35-.56,.77-.99,1.24-1.31,.47-.31,.97-.47,1.49-.47s.9,.15,1.16,.46,.4,.72,.4,1.24c0,.2-.02,.39-.05,.55l-.65,4.07h-1.41l.59-3.79c.03-.2,.05-.34,.05-.44,0-.55-.2-.82-.6-.82-.35,0-.73,.21-1.16,.62-.43,.41-.82,.91-1.15,1.5l-.46,2.93h-1.42Z"/><path class="cls-7" d="M261.29,123.5c-.02,.64-.29,1.16-.84,1.56-.54,.4-1.4,.59-2.59,.59-.28,0-.58-.01-.88-.04,0,.48,.14,.84,.39,1.07,.25,.24,.67,.35,1.24,.35,.68,0,1.37-.13,2.06-.39l-.2,1.19c-.71,.24-1.44,.36-2.18,.36-.99,0-1.7-.23-2.14-.68s-.65-1.1-.65-1.95c0-1.07,.32-1.98,.96-2.72,.64-.74,1.51-1.11,2.61-1.11,.75,0,1.31,.16,1.67,.48,.36,.32,.54,.74,.54,1.26Zm-4.25,1.16c.1,0,.27,.01,.49,.01,.41,0,.77-.03,1.09-.08,.32-.05,.61-.16,.86-.32,.25-.16,.38-.38,.38-.65,0-.22-.08-.4-.23-.55-.15-.15-.38-.22-.69-.22-.46,0-.86,.16-1.21,.48-.34,.32-.57,.76-.7,1.32Z"/><path class="cls-7" d="M261.95,128.07l.98-6.2h1.14l-.13,1.59c.7-1.14,1.5-1.71,2.41-1.71h.11l-.28,1.44c-.78,0-1.55,.56-2.31,1.69l-.49,3.19h-1.42Z"/><path class="cls-7" d="M268.02,128.07h-1.48l1.32-8.32h1.48l-1.32,8.32Z"/><path class="cls-7" d="M269.56,128.07l.99-6.2h1.13l-.14,1.65c.35-.56,.77-.99,1.24-1.31,.47-.31,.97-.47,1.49-.47s.9,.15,1.16,.46,.4,.72,.4,1.24c0,.2-.02,.39-.05,.55l-.65,4.07h-1.41l.59-3.79c.03-.2,.05-.34,.05-.44,0-.55-.2-.82-.6-.82-.35,0-.73,.21-1.16,.62-.43,.41-.82,.91-1.15,1.5l-.46,2.93h-1.42Z"/><path class="cls-7" d="M282.74,126.59l-.15,1.33c-.13,.05-.44,.11-.91,.18-.47,.07-.91,.11-1.33,.11-1.12,0-1.98-.29-2.56-.87-.59-.58-.88-1.43-.88-2.54,0-.68,.1-1.33,.29-1.94s.48-1.15,.85-1.64c.38-.49,.88-.87,1.5-1.16,.62-.29,1.34-.43,2.14-.43,.35,0,.75,.03,1.19,.08,.44,.06,.76,.12,.96,.2l-.27,1.33c-.54-.19-1.15-.28-1.81-.28-1.07,0-1.89,.33-2.46,1-.58,.67-.86,1.53-.86,2.58,0,.82,.2,1.42,.6,1.79,.4,.37,.98,.56,1.74,.56s1.39-.1,1.98-.29Z"/><path class="cls-7" d="M286.89,126.85l-.12,1.11c-.4,.16-.81,.25-1.24,.25-.45,0-.81-.11-1.06-.32-.25-.21-.38-.53-.38-.94,0-.15,0-.26,.02-.34l1.13-7.13h1.42l-1.08,6.81c0,.08-.01,.14-.01,.18,0,.2,.04,.34,.13,.42,.09,.07,.24,.11,.46,.11,.19,0,.43-.05,.73-.14Z"/><path class="cls-7" d="M289.05,128.07h-1.42l.98-6.2h1.42l-.98,6.2Zm1.38-8c0,.27-.08,.49-.24,.66-.16,.17-.4,.26-.73,.26-.49,0-.73-.21-.73-.64,0-.27,.08-.49,.24-.66,.16-.17,.41-.26,.74-.26,.48,0,.72,.21,.72,.64Z"/><path class="cls-7" d="M299.06,121.74c.51,0,.9,.15,1.16,.46s.4,.72,.4,1.24c0,.2-.02,.39-.05,.55l-.65,4.07h-1.41l.59-3.79c.03-.2,.05-.34,.05-.44,0-.55-.2-.82-.6-.82-.29,0-.64,.2-1.05,.59-.41,.39-.76,.87-1.07,1.42l-.48,3.04h-1.41l.59-3.79c.03-.2,.05-.34,.05-.44,0-.55-.2-.82-.6-.82-.3,0-.65,.21-1.05,.62-.4,.41-.76,.91-1.06,1.5l-.46,2.93h-1.42l.99-6.2h1.13l-.14,1.65c.76-1.18,1.6-1.78,2.53-1.78,.49,0,.87,.15,1.14,.44,.27,.29,.41,.68,.42,1.16,.72-1.07,1.53-1.6,2.41-1.6Z"/><path class="cls-7" d="M305.85,121.74c.57,0,1.03,.23,1.36,.69s.5,1.05,.5,1.77c0,.47-.07,.93-.2,1.37s-.34,.87-.61,1.28c-.27,.41-.66,.74-1.16,.98-.5,.25-1.09,.37-1.75,.37-.81,0-1.65-.12-2.54-.35l1.32-8.38h1.42l-.47,2.99-.16,.71c.75-.95,1.51-1.42,2.31-1.42Zm-.38,1.28c-.31,0-.68,.21-1.11,.64-.42,.43-.79,.92-1.11,1.46l-.26,1.72c.3,.12,.67,.18,1.12,.18,.39,0,.73-.08,1.02-.25s.51-.39,.67-.66c.16-.27,.27-.55,.34-.84,.07-.29,.11-.57,.11-.86,0-.42-.07-.75-.21-1.01s-.33-.38-.58-.38Z"/></g></g><g><path class="cls-1" d="M417.08,63.16v-5.62h4.11v8.58c-1.84,.57-3.84,.86-6.01,.86-2.9,0-5.15-.78-6.77-2.34-1.62-1.56-2.43-3.92-2.43-7.07,0-2.96,.8-5.29,2.39-6.99,1.59-1.7,3.88-2.55,6.86-2.55,1.13,0,2.26,.07,3.39,.22,1.14,.15,1.82,.27,2.04,.38l-.23,3.74c-.49-.16-1.21-.29-2.16-.42-.95-.12-1.79-.18-2.52-.18-1.72,0-3.06,.44-4.04,1.33-.98,.88-1.47,2.38-1.47,4.5,0,3.8,1.73,5.69,5.2,5.69,.69,0,1.24-.04,1.64-.13Z"/><path class="cls-16" d="M436.03,63.03l-.08,3.15c-1.51,.54-3.28,.81-5.3,.81-4.84,0-7.25-2.32-7.25-6.97,0-2.32,.58-4.12,1.73-5.4,1.15-1.27,2.81-1.91,4.98-1.91s3.77,.55,4.77,1.64c1,1.09,1.5,2.5,1.5,4.24,0,.73-.09,1.5-.26,2.31h-8.58c.1,1,.45,1.73,1.04,2.17s1.51,.66,2.76,.66c1.56,0,3.13-.23,4.71-.7Zm-3.69-4.52v-.26c0-1.65-.75-2.47-2.24-2.47-1.59,0-2.44,.91-2.55,2.73h4.78Z"/><path class="cls-14" d="M447.13,62.98l.16,3.38c-1.16,.42-2.31,.62-3.43,.62-2.88,0-4.32-1.54-4.32-4.63v-6.16h-1.61v-3.2h1.69l.47-3.35h3.51v3.35h3.48l-.13,3.2h-3.35v5.69c0,1.02,.59,1.53,1.77,1.53,.59,0,1.18-.15,1.77-.44Z"/><path class="cls-15" d="M454.94,52.97h3.09l.36,1.72c1.11-1.33,2.54-2,4.29-2s3.03,.62,4,1.86,1.46,2.96,1.46,5.16c0,2.32-.59,4.12-1.77,5.38-1.18,1.27-2.83,1.9-4.97,1.9-.9,0-1.75-.1-2.55-.31l.1,1.38v3.93h-4.03v-19.01Zm4.03,4.5v5.88c.47,.19,1.08,.29,1.82,.29,2.22,0,3.33-1.3,3.33-3.9,0-2.43-.83-3.64-2.5-3.64-.99,0-1.87,.46-2.65,1.38Z"/><path class="cls-19" d="M482.44,63.03l-.08,3.15c-1.51,.54-3.28,.81-5.3,.81-4.84,0-7.25-2.32-7.25-6.97,0-2.32,.58-4.12,1.73-5.4,1.15-1.27,2.81-1.91,4.98-1.91s3.77,.55,4.77,1.64c1,1.09,1.5,2.5,1.5,4.24,0,.73-.09,1.5-.26,2.31h-8.58c.1,1,.45,1.73,1.04,2.17s1.51,.66,2.76,.66c1.56,0,3.13-.23,4.71-.7Zm-3.69-4.52v-.26c0-1.65-.75-2.47-2.24-2.47-1.59,0-2.44,.91-2.55,2.73h4.78Z"/><path class="cls-17" d="M489.28,66.7h-4.06v-13.7h3.07l.47,2.03c1.13-1.54,2.73-2.31,4.81-2.31l-.16,3.61c-1.79,0-3.16,.49-4.13,1.48v8.89Z"/><path class="cls-18" d="M495.24,66.31l.18-3.43c.14,.14,.71,.32,1.73,.53,1.01,.22,1.94,.33,2.77,.33,1.79,0,2.68-.37,2.68-1.12,0-.31-.26-.56-.78-.75-.52-.19-1.15-.36-1.88-.52-.74-.16-1.47-.36-2.2-.61-.73-.25-1.35-.69-1.87-1.33-.52-.63-.78-1.43-.78-2.41,0-1.33,.51-2.38,1.53-3.15s2.53-1.14,4.52-1.14c1.09,0,2.08,.08,2.98,.25,.89,.17,1.44,.32,1.65,.46l-.16,3.33c-.35-.19-.92-.36-1.72-.52-.8-.16-1.55-.23-2.26-.23-.8,0-1.46,.1-1.99,.3-.53,.2-.79,.48-.79,.84,0,.26,.19,.47,.56,.64s.84,.29,1.39,.38,1.15,.23,1.79,.43c.64,.2,1.24,.44,1.79,.71,.55,.28,1.02,.71,1.39,1.29,.37,.58,.56,1.29,.56,2.12,0,2.84-2,4.26-6.01,4.26-.8,0-1.61-.05-2.44-.16-.83-.1-1.46-.2-1.9-.3-.43-.09-.68-.16-.75-.19Z"/><path class="cls-12" d="M520.1,65.11c-1.19,1.25-2.9,1.87-5.13,1.87s-3.95-.62-5.13-1.87c-1.19-1.25-1.78-3.01-1.78-5.28s.59-4.03,1.78-5.26c1.19-1.24,2.9-1.86,5.13-1.86s3.95,.62,5.13,1.86,1.78,2.99,1.78,5.26-.59,4.03-1.78,5.28Zm-5.13-1.51c1.91,0,2.86-1.26,2.86-3.77s-.95-3.74-2.86-3.74-2.89,1.25-2.89,3.74,.96,3.77,2.89,3.77Z"/><path class="cls-13" d="M536.96,66.7h-4.06v-7.98c0-1.66-.68-2.5-2.03-2.5-1.09,0-2,.44-2.73,1.33v9.15h-4.03v-13.7h3.09l.39,1.82c1.08-1.4,2.58-2.11,4.52-2.11,1.54,0,2.73,.45,3.58,1.34,.84,.89,1.26,2.17,1.26,3.83v8.81Z"/><path class="cls-42" d="M551.6,66.7h-3.12l-.36-1.59c-1.08,1.25-2.53,1.87-4.37,1.87-1.37,0-2.48-.33-3.33-.99-.85-.66-1.27-1.6-1.27-2.83,0-1.46,.56-2.51,1.68-3.16,1.12-.65,2.6-.97,4.43-.97,.55,0,1.32,.05,2.29,.16v-1.3c0-1.2-1.03-1.79-3.09-1.79-1.56,0-2.94,.27-4.13,.81l-.16-3.28c1.47-.61,3.23-.91,5.28-.91,4.11,0,6.16,1.6,6.16,4.78v9.2Zm-4.06-3.43v-1.85c-.62-.07-1.22-.1-1.79-.1-1.75,0-2.63,.53-2.63,1.59,0,.92,.61,1.38,1.82,1.38,1.06,0,1.92-.34,2.6-1.01Z"/><path class="cls-43" d="M561.14,63.34l.16,3.07c-.85,.38-1.79,.57-2.83,.57-2.7,0-4.06-1.2-4.06-3.59v-15.7h4.06v14.27c0,.61,.12,1.03,.35,1.26,.23,.23,.57,.35,1,.35,.35,0,.79-.08,1.33-.23Z"/><path class="cls-41" d="M567.31,49.25c0,.64-.19,1.16-.56,1.55-.37,.39-.94,.58-1.7,.58-1.51,0-2.26-.71-2.26-2.13s.75-2.11,2.26-2.11,2.26,.7,2.26,2.11Zm-.26,17.45h-4.03v-13.7h4.03v13.7Z"/><path class="cls-40" d="M580.88,66.7h-11.26v-3.2l5.36-6.27,1.12-1.14-1.98,.1h-4.24v-3.2h11v3.2l-5.15,6.16-1.17,1.25,2.05-.1h4.26v3.2Z"/><path class="cls-30" d="M595.26,63.03l-.08,3.15c-1.51,.54-3.28,.81-5.3,.81-4.84,0-7.25-2.32-7.25-6.97,0-2.32,.58-4.12,1.73-5.4,1.15-1.27,2.81-1.91,4.98-1.91s3.77,.55,4.77,1.64c1,1.09,1.5,2.5,1.5,4.24,0,.73-.09,1.5-.26,2.31h-8.58c.1,1,.45,1.73,1.04,2.17s1.51,.66,2.76,.66c1.56,0,3.13-.23,4.71-.7Zm-3.69-4.52v-.26c0-1.65-.75-2.47-2.24-2.47-1.59,0-2.44,.91-2.55,2.73h4.78Z"/><path class="cls-36" d="M610.67,66.7h-3.09l-.39-1.69c-1.06,1.32-2.48,1.98-4.26,1.98s-3.05-.62-4.02-1.85c-.96-1.23-1.44-2.95-1.44-5.15,0-2.34,.59-4.14,1.77-5.39s2.83-1.89,4.97-1.89c1.02,0,1.86,.1,2.52,.31l-.1-1.38v-3.95h4.06v19.01Zm-4.06-4.5v-5.88c-.47-.17-1.07-.26-1.79-.26-2.24,0-3.35,1.29-3.35,3.87,0,1.16,.21,2.06,.64,2.7s1.04,.96,1.86,.96c1.04,0,1.92-.47,2.65-1.4Z"/><path class="cls-38" d="M632.36,56.04l-2.24,.05c.22,.36,.34,.77,.34,1.22,0,1.44-.52,2.55-1.57,3.34s-2.6,1.18-4.64,1.18c-.4,0-.78-.03-1.14-.08-.29,.12-.44,.31-.44,.57,0,.38,.34,.58,1.01,.6l3.28,.18c3.29,.21,4.94,1.53,4.94,3.98,0,1.46-.64,2.69-1.91,3.69-1.27,1-3.16,1.51-5.66,1.51-2.08,0-3.68-.31-4.81-.94s-1.69-1.51-1.69-2.65c0-1.35,.8-2.41,2.39-3.17-.75-.4-1.12-1-1.12-1.82,0-.48,.15-.95,.44-1.4,.29-.45,.7-.8,1.22-1.04-1.63-.66-2.44-1.93-2.44-3.82,0-1.59,.55-2.78,1.65-3.56,1.1-.78,2.59-1.17,4.46-1.17,1.53,0,2.76,.24,3.72,.73l4.03-.49,.18,3.09Zm-6.6,10.01l-2.76-.08c-.76,.5-1.14,1.12-1.14,1.85,0,.5,.24,.92,.71,1.26,.48,.34,1.18,.51,2.12,.51,1,0,1.82-.19,2.44-.56,.62-.37,.94-.86,.94-1.47,0-.92-.77-1.42-2.31-1.51Zm.96-8.68c0-1.3-.78-1.95-2.34-1.95s-2.34,.66-2.34,1.98c0,1.25,.76,1.87,2.29,1.87s2.39-.63,2.39-1.9Z"/><path class="cls-39" d="M647.05,66.7h-3.09l-.42-1.79c-1.02,1.39-2.52,2.08-4.5,2.08-1.54,0-2.73-.45-3.58-1.34s-1.26-2.17-1.26-3.83v-8.81h4.06v7.98c0,1.66,.67,2.5,2,2.5,1.04,0,1.96-.43,2.76-1.3v-9.18h4.03v13.7Z"/><path class="cls-31" d="M654.23,49.25c0,.64-.19,1.16-.56,1.55-.37,.39-.94,.58-1.7,.58-1.51,0-2.26-.71-2.26-2.13s.75-2.11,2.26-2.11,2.26,.7,2.26,2.11Zm-.26,17.45h-4.03v-13.7h4.03v13.7Z"/><path class="cls-37" d="M669.49,66.7h-3.09l-.39-1.69c-1.06,1.32-2.48,1.98-4.26,1.98s-3.05-.62-4.02-1.85c-.96-1.23-1.44-2.95-1.44-5.15,0-2.34,.59-4.14,1.77-5.39s2.83-1.89,4.97-1.89c1.02,0,1.86,.1,2.52,.31l-.1-1.38v-3.95h4.06v19.01Zm-4.06-4.5v-5.88c-.47-.17-1.07-.26-1.79-.26-2.24,0-3.35,1.29-3.35,3.87,0,1.16,.21,2.06,.64,2.7s1.04,.96,1.86,.96c1.04,0,1.92-.47,2.65-1.4Z"/><path class="cls-33" d="M684.12,66.7h-3.12l-.36-1.59c-1.08,1.25-2.53,1.87-4.37,1.87-1.37,0-2.48-.33-3.33-.99-.85-.66-1.27-1.6-1.27-2.83,0-1.46,.56-2.51,1.68-3.16,1.12-.65,2.6-.97,4.43-.97,.55,0,1.32,.05,2.29,.16v-1.3c0-1.2-1.03-1.79-3.09-1.79-1.56,0-2.94,.27-4.13,.81l-.16-3.28c1.47-.61,3.23-.91,5.28-.91,4.11,0,6.16,1.6,6.16,4.78v9.2Zm-4.06-3.43v-1.85c-.62-.07-1.22-.1-1.79-.1-1.75,0-2.63,.53-2.63,1.59,0,.92,.61,1.38,1.82,1.38,1.06,0,1.92-.34,2.6-1.01Z"/><path class="cls-34" d="M699.78,66.7h-4.06v-7.98c0-1.66-.68-2.5-2.03-2.5-1.09,0-2,.44-2.73,1.33v9.15h-4.03v-13.7h3.09l.39,1.82c1.08-1.4,2.58-2.11,4.52-2.11,1.54,0,2.73,.45,3.58,1.34,.84,.89,1.26,2.17,1.26,3.83v8.81Z"/><path class="cls-32" d="M712.85,63.03l.16,3.43c-1.28,.35-2.61,.52-3.98,.52-2.25,0-3.99-.61-5.2-1.82-1.21-1.21-1.82-2.99-1.82-5.33s.61-4.11,1.82-5.32c1.21-1.21,2.95-1.81,5.2-1.81,1.37,0,2.7,.17,3.98,.52l-.16,3.43c-1.14-.31-2.25-.47-3.33-.47-2.34,0-3.51,1.21-3.51,3.64s1.17,3.64,3.51,3.64c1.14,0,2.25-.15,3.33-.44Z"/><path class="cls-35" d="M727.49,63.03l-.08,3.15c-1.51,.54-3.28,.81-5.3,.81-4.84,0-7.25-2.32-7.25-6.97,0-2.32,.58-4.12,1.73-5.4,1.15-1.27,2.81-1.91,4.98-1.91s3.77,.55,4.77,1.64c1,1.09,1.5,2.5,1.5,4.24,0,.73-.09,1.5-.26,2.31h-8.58c.1,1,.45,1.73,1.04,2.17s1.51,.66,2.76,.66c1.56,0,3.13-.23,4.71-.7Zm-3.69-4.52v-.26c0-1.65-.75-2.47-2.24-2.47-1.59,0-2.44,.91-2.55,2.73h4.78Z"/><path class="cls-45" d="M740.47,66.7h-4.06v-10.53h-1.59v-3.17h1.59v-.7c0-.83,.12-1.56,.38-2.2,.25-.63,.57-1.14,.96-1.51,.39-.37,.86-.67,1.4-.9s1.07-.38,1.57-.46c.5-.08,1.04-.12,1.61-.12,.83,0,1.59,.07,2.29,.21l-.13,3.28c-.4-.12-.88-.18-1.43-.18-1.73,0-2.6,.76-2.6,2.29v.29h3.64v3.17h-3.64v10.53Z"/><path class="cls-53" d="M750.22,66.7h-4.06v-13.7h3.07l.47,2.03c1.13-1.54,2.73-2.31,4.81-2.31l-.16,3.61c-1.79,0-3.16,.49-4.13,1.48v8.89Z"/><path class="cls-46" d="M768.01,65.11c-1.19,1.25-2.9,1.87-5.13,1.87s-3.95-.62-5.13-1.87c-1.19-1.25-1.78-3.01-1.78-5.28s.59-4.03,1.78-5.26c1.19-1.24,2.9-1.86,5.13-1.86s3.95,.62,5.13,1.86,1.78,2.99,1.78,5.26-.59,4.03-1.78,5.28Zm-5.13-1.51c1.91,0,2.86-1.26,2.86-3.77s-.95-3.74-2.86-3.74-2.89,1.25-2.89,3.74,.96,3.77,2.89,3.77Z"/><path class="cls-44" d="M793.14,66.7h-4.03v-8.16c0-1.53-.66-2.29-1.98-2.29-1.04,0-1.87,.42-2.5,1.27v9.18h-4.06v-8.16c0-1.54-.65-2.31-1.95-2.31-1.06,0-1.91,.43-2.55,1.3v9.18h-4.06v-13.7h3.09l.39,1.82c1-1.4,2.49-2.11,4.45-2.11s3.32,.7,4.03,2.11c1.07-1.39,2.57-2.08,4.5-2.08,1.47,0,2.62,.42,3.43,1.25s1.22,2.05,1.22,3.67v9.05Z"/><path class="cls-54" d="M448.84,97.9h-8.09v-18.38h7.93c2.08,0,3.66,.37,4.75,1.12,1.08,.75,1.62,1.96,1.62,3.64,0,2.05-.82,3.41-2.47,4.08,1.99,.61,2.99,2.05,2.99,4.34,0,1.73-.54,3.03-1.61,3.9-1.07,.87-2.78,1.3-5.12,1.3Zm-3.85-10.61h3.07c1.04,0,1.79-.19,2.25-.58,.46-.39,.69-.99,.69-1.81s-.23-1.37-.69-1.7c-.46-.34-1.21-.51-2.25-.51h-3.07v4.6Zm0,7.41h3.2c1.16,0,1.98-.2,2.44-.6,.47-.4,.7-1,.7-1.82s-.24-1.4-.71-1.75c-.48-.35-1.3-.53-2.48-.53h-3.15v4.71Z"/><path class="cls-55" d="M470.57,97.9h-3.09l-.42-1.79c-1.02,1.39-2.52,2.08-4.5,2.08-1.54,0-2.73-.45-3.58-1.34s-1.26-2.17-1.26-3.83v-8.81h4.06v7.98c0,1.66,.67,2.5,2,2.5,1.04,0,1.96-.43,2.76-1.3v-9.18h4.03v13.7Z"/><path class="cls-57" d="M473.02,97.51l.18-3.43c.14,.14,.71,.32,1.73,.53,1.01,.22,1.94,.33,2.77,.33,1.79,0,2.68-.37,2.68-1.12,0-.31-.26-.56-.78-.75-.52-.19-1.15-.36-1.88-.52-.74-.16-1.47-.36-2.2-.61-.73-.25-1.35-.69-1.87-1.33-.52-.63-.78-1.43-.78-2.41,0-1.33,.51-2.38,1.53-3.15s2.53-1.14,4.52-1.14c1.09,0,2.08,.08,2.98,.25,.89,.17,1.44,.32,1.65,.46l-.16,3.33c-.35-.19-.92-.36-1.72-.52-.8-.16-1.55-.23-2.26-.23-.8,0-1.46,.1-1.99,.3-.53,.2-.79,.48-.79,.84,0,.26,.19,.47,.56,.64s.84,.29,1.39,.38,1.15,.23,1.79,.43c.64,.2,1.24,.44,1.79,.71,.55,.28,1.02,.71,1.39,1.29,.37,.58,.56,1.29,.56,2.12,0,2.84-2,4.26-6.01,4.26-.8,0-1.61-.05-2.44-.16-.83-.1-1.46-.2-1.9-.3-.43-.09-.68-.16-.75-.19Z"/><path class="cls-59" d="M490.78,80.45c0,.64-.19,1.16-.56,1.55-.37,.39-.94,.58-1.7,.58-1.51,0-2.26-.71-2.26-2.13s.75-2.11,2.26-2.11,2.26,.7,2.26,2.11Zm-.26,17.45h-4.03v-13.7h4.03v13.7Z"/><path class="cls-58" d="M506.24,97.9h-4.06v-7.98c0-1.66-.68-2.5-2.03-2.5-1.09,0-2,.44-2.73,1.33v9.15h-4.03v-13.7h3.09l.39,1.82c1.08-1.4,2.58-2.11,4.52-2.11,1.54,0,2.73,.45,3.58,1.34,.84,.89,1.26,2.17,1.26,3.83v8.81Z"/><path class="cls-56" d="M521.12,94.23l-.08,3.15c-1.51,.54-3.28,.81-5.3,.81-4.84,0-7.25-2.32-7.25-6.97,0-2.32,.58-4.12,1.73-5.4,1.15-1.27,2.81-1.91,4.98-1.91s3.77,.55,4.77,1.64c1,1.09,1.5,2.5,1.5,4.24,0,.73-.09,1.5-.26,2.31h-8.58c.1,1,.45,1.73,1.04,2.17s1.51,.66,2.76,.66c1.56,0,3.13-.23,4.71-.7Zm-3.69-4.52v-.26c0-1.65-.75-2.47-2.24-2.47-1.59,0-2.44,.91-2.55,2.73h4.78Z"/><path class="cls-50" d="M523.53,97.51l.18-3.43c.14,.14,.71,.32,1.73,.53,1.01,.22,1.94,.33,2.77,.33,1.79,0,2.68-.37,2.68-1.12,0-.31-.26-.56-.78-.75-.52-.19-1.15-.36-1.88-.52-.74-.16-1.47-.36-2.2-.61-.73-.25-1.35-.69-1.87-1.33-.52-.63-.78-1.43-.78-2.41,0-1.33,.51-2.38,1.53-3.15s2.53-1.14,4.52-1.14c1.09,0,2.08,.08,2.98,.25,.89,.17,1.44,.32,1.65,.46l-.16,3.33c-.35-.19-.92-.36-1.72-.52-.8-.16-1.55-.23-2.26-.23-.8,0-1.46,.1-1.99,.3-.53,.2-.79,.48-.79,.84,0,.26,.19,.47,.56,.64s.84,.29,1.39,.38,1.15,.23,1.79,.43c.64,.2,1.24,.44,1.79,.71,.55,.28,1.02,.71,1.39,1.29,.37,.58,.56,1.29,.56,2.12,0,2.84-2,4.26-6.01,4.26-.8,0-1.61-.05-2.44-.16-.83-.1-1.46-.2-1.9-.3-.43-.09-.68-.16-.75-.19Z"/><path class="cls-48" d="M536.48,97.51l.18-3.43c.14,.14,.71,.32,1.73,.53,1.01,.22,1.94,.33,2.77,.33,1.79,0,2.68-.37,2.68-1.12,0-.31-.26-.56-.78-.75-.52-.19-1.15-.36-1.88-.52-.74-.16-1.47-.36-2.2-.61-.73-.25-1.35-.69-1.87-1.33-.52-.63-.78-1.43-.78-2.41,0-1.33,.51-2.38,1.53-3.15s2.53-1.14,4.52-1.14c1.09,0,2.08,.08,2.98,.25,.89,.17,1.44,.32,1.65,.46l-.16,3.33c-.35-.19-.92-.36-1.72-.52-.8-.16-1.55-.23-2.26-.23-.8,0-1.46,.1-1.99,.3-.53,.2-.79,.48-.79,.84,0,.26,.19,.47,.56,.64s.84,.29,1.39,.38,1.15,.23,1.79,.43c.64,.2,1.24,.44,1.79,.71,.55,.28,1.02,.71,1.39,1.29,.37,.58,.56,1.29,.56,2.12,0,2.84-2,4.26-6.01,4.26-.8,0-1.61-.05-2.44-.16-.83-.1-1.46-.2-1.9-.3-.43-.09-.68-.16-.75-.19Z"/><path class="cls-52" d="M568.75,97.9h-13.26v-18.38h13.26v3.56h-9.02v3.85h7.83v3.41h-7.83v4h9.02v3.56Z"/><path class="cls-49" d="M584.06,97.92h-4.6l-2.52-3.9-2.65,3.9h-4.21l4.73-6.84-4.63-6.86h4.63l2.42,4,2.7-4h4.08l-4.73,6.73,4.78,6.97Z"/><path class="cls-47" d="M585.62,84.17h3.09l.36,1.72c1.11-1.33,2.54-2,4.29-2s3.03,.62,4,1.86,1.46,2.96,1.46,5.16c0,2.32-.59,4.12-1.77,5.38-1.18,1.27-2.83,1.9-4.97,1.9-.9,0-1.75-.1-2.55-.31l.1,1.38v3.93h-4.03v-19.01Zm4.03,4.5v5.88c.47,.19,1.08,.29,1.82,.29,2.22,0,3.33-1.3,3.33-3.9,0-2.43-.83-3.64-2.5-3.64-.99,0-1.87,.46-2.65,1.38Z"/><path class="cls-51" d="M613.13,94.23l-.08,3.15c-1.51,.54-3.28,.81-5.3,.81-4.84,0-7.25-2.32-7.25-6.97,0-2.32,.58-4.12,1.73-5.4,1.15-1.27,2.81-1.91,4.98-1.91s3.77,.55,4.77,1.64c1,1.09,1.5,2.5,1.5,4.24,0,.73-.09,1.5-.26,2.31h-8.58c.1,1,.45,1.73,1.04,2.17s1.51,.66,2.76,.66c1.56,0,3.13-.23,4.71-.7Zm-3.69-4.52v-.26c0-1.65-.75-2.47-2.24-2.47-1.59,0-2.44,.91-2.55,2.73h4.78Z"/><path class="cls-21" d="M619.97,97.9h-4.06v-13.7h3.07l.47,2.03c1.13-1.54,2.73-2.31,4.81-2.31l-.16,3.61c-1.79,0-3.16,.49-4.13,1.48v8.89Z"/><path class="cls-20" d="M634.61,94.18l.16,3.38c-1.16,.42-2.31,.62-3.43,.62-2.88,0-4.32-1.54-4.32-4.63v-6.16h-1.61v-3.2h1.69l.47-3.35h3.51v3.35h3.48l-.13,3.2h-3.35v5.69c0,1.02,.59,1.53,1.77,1.53,.59,0,1.18-.15,1.77-.44Z"/><path class="cls-23" d="M636.58,97.51l.18-3.43c.14,.14,.71,.32,1.73,.53,1.01,.22,1.94,.33,2.77,.33,1.79,0,2.68-.37,2.68-1.12,0-.31-.26-.56-.78-.75-.52-.19-1.15-.36-1.88-.52-.74-.16-1.47-.36-2.2-.61-.73-.25-1.35-.69-1.87-1.33-.52-.63-.78-1.43-.78-2.41,0-1.33,.51-2.38,1.53-3.15s2.53-1.14,4.52-1.14c1.09,0,2.08,.08,2.98,.25,.89,.17,1.44,.32,1.65,.46l-.16,3.33c-.35-.19-.92-.36-1.72-.52-.8-.16-1.55-.23-2.26-.23-.8,0-1.46,.1-1.99,.3-.53,.2-.79,.48-.79,.84,0,.26,.19,.47,.56,.64s.84,.29,1.39,.38,1.15,.23,1.79,.43c.64,.2,1.24,.44,1.79,.71,.55,.28,1.02,.71,1.39,1.29,.37,.58,.56,1.29,.56,2.12,0,2.84-2,4.26-6.01,4.26-.8,0-1.61-.05-2.44-.16-.83-.1-1.46-.2-1.9-.3-.43-.09-.68-.16-.75-.19Z"/><path class="cls-22" d="M659.83,97.9h-4.24v-18.38h7.54c1.42,0,2.61,.15,3.58,.46s1.69,.75,2.2,1.34c.5,.59,.85,1.23,1.05,1.92s.3,1.52,.3,2.47c0,4.16-2.38,6.24-7.12,6.24h-3.3v5.95Zm0-9.31h2.94c1.2,0,2.02-.25,2.48-.75s.69-1.22,.69-2.16-.23-1.64-.68-2.11c-.45-.47-1.28-.7-2.5-.7h-2.94v5.72Z"/><path class="cls-26" d="M676.21,97.9h-4.06v-13.7h3.07l.47,2.03c1.13-1.54,2.73-2.31,4.81-2.31l-.16,3.61c-1.79,0-3.16,.49-4.13,1.48v8.89Z"/><path class="cls-24" d="M694,96.31c-1.19,1.25-2.9,1.87-5.13,1.87s-3.95-.62-5.13-1.87c-1.19-1.25-1.78-3.01-1.78-5.28s.59-4.03,1.78-5.26c1.19-1.24,2.9-1.86,5.13-1.86s3.95,.62,5.13,1.86,1.78,2.99,1.78,5.26-.59,4.03-1.78,5.28Zm-5.13-1.51c1.91,0,2.86-1.26,2.86-3.77s-.95-3.74-2.86-3.74-2.89,1.25-2.89,3.74,.96,3.77,2.89,3.77Z"/><path class="cls-25" d="M711.39,87.24l-2.24,.05c.22,.36,.34,.77,.34,1.22,0,1.44-.52,2.55-1.57,3.34s-2.6,1.18-4.64,1.18c-.4,0-.78-.03-1.14-.08-.29,.12-.44,.31-.44,.57,0,.38,.34,.58,1.01,.6l3.28,.18c3.29,.21,4.94,1.53,4.94,3.98,0,1.46-.64,2.69-1.91,3.69-1.27,1-3.16,1.51-5.66,1.51-2.08,0-3.68-.31-4.81-.94s-1.69-1.51-1.69-2.65c0-1.35,.8-2.41,2.39-3.17-.75-.4-1.12-1-1.12-1.82,0-.48,.15-.95,.44-1.4,.29-.45,.7-.8,1.22-1.04-1.63-.66-2.44-1.93-2.44-3.82,0-1.59,.55-2.78,1.65-3.56,1.1-.78,2.59-1.17,4.46-1.17,1.53,0,2.76,.24,3.72,.73l4.03-.49,.18,3.09Zm-6.6,10.01l-2.76-.08c-.76,.5-1.14,1.12-1.14,1.85,0,.5,.24,.92,.71,1.26,.48,.34,1.18,.51,2.12,.51,1,0,1.82-.19,2.44-.56,.62-.37,.94-.86,.94-1.47,0-.92-.77-1.42-2.31-1.51Zm.96-8.68c0-1.3-.78-1.95-2.34-1.95s-2.34,.66-2.34,1.98c0,1.25,.76,1.87,2.29,1.87s2.39-.63,2.39-1.9Z"/><path class="cls-28" d="M717.29,97.9h-4.06v-13.7h3.07l.47,2.03c1.13-1.54,2.73-2.31,4.81-2.31l-.16,3.61c-1.79,0-3.16,.49-4.13,1.48v8.89Z"/><path class="cls-29" d="M735.1,97.9h-3.12l-.36-1.59c-1.08,1.25-2.53,1.87-4.37,1.87-1.37,0-2.48-.33-3.33-.99-.85-.66-1.27-1.6-1.27-2.83,0-1.46,.56-2.51,1.68-3.16,1.12-.65,2.6-.97,4.43-.97,.55,0,1.32,.05,2.29,.16v-1.3c0-1.2-1.03-1.79-3.09-1.79-1.56,0-2.94,.27-4.13,.81l-.16-3.28c1.47-.61,3.23-.91,5.28-.91,4.11,0,6.16,1.6,6.16,4.78v9.2Zm-4.06-3.43v-1.85c-.62-.07-1.22-.1-1.79-.1-1.75,0-2.63,.53-2.63,1.59,0,.92,.61,1.38,1.82,1.38,1.06,0,1.92-.34,2.6-1.01Z"/><path class="cls-27" d="M759.02,97.9h-4.03v-8.16c0-1.53-.66-2.29-1.98-2.29-1.04,0-1.87,.42-2.5,1.27v9.18h-4.06v-8.16c0-1.54-.65-2.31-1.95-2.31-1.06,0-1.91,.43-2.55,1.3v9.18h-4.06v-13.7h3.09l.39,1.82c1-1.4,2.49-2.11,4.45-2.11s3.32,.7,4.03,2.11c1.07-1.39,2.57-2.08,4.5-2.08,1.47,0,2.62,.42,3.43,1.25s1.22,2.05,1.22,3.67v9.05Z"/></g><g><path class="cls-10" d="M424.89,131.5c-1.88,0-3.32-.57-4.31-1.7s-1.49-2.73-1.49-4.8,.5-3.74,1.51-4.9c1.01-1.15,2.47-1.73,4.37-1.73s3.32,.57,4.32,1.71,1.49,2.74,1.49,4.81-.5,3.71-1.51,4.87c-1.01,1.16-2.47,1.74-4.39,1.74Zm.07-1.94c1.16,0,2.05-.4,2.65-1.19,.6-.79,.9-1.94,.9-3.46s-.3-2.62-.89-3.41c-.59-.79-1.47-1.18-2.64-1.18s-2.08,.4-2.68,1.19c-.6,.79-.9,1.93-.9,3.42s.3,2.65,.9,3.44c.6,.79,1.49,1.19,2.66,1.19Z"/><path class="cls-10" d="M441.21,131.3h-1.69l-.22-1.3c-.83,.98-1.93,1.48-3.29,1.48-1.03,0-1.84-.3-2.43-.91-.59-.61-.88-1.49-.88-2.64v-6.12h2.18v5.74c0,1.38,.56,2.07,1.69,2.07,.98,0,1.81-.43,2.47-1.28v-6.53h2.18v9.49Z"/><path class="cls-10" d="M445.7,131.3h-2.18v-9.49h1.66l.25,1.42c.83-1.07,1.97-1.6,3.42-1.6l-.11,1.98c-1.22,0-2.24,.43-3.04,1.3v6.39Z"/><path class="cls-10" d="M456.59,131.3h-2.27v-12.73h5.06c1.76,0,2.99,.37,3.68,1.1,.69,.73,1.04,1.75,1.04,3.04s-.36,2.26-1.09,3.02c-.73,.77-1.94,1.15-3.63,1.15h-2.79v4.41Zm0-6.25h2.61c.97,0,1.65-.2,2.03-.61,.38-.41,.57-.98,.57-1.73s-.19-1.33-.57-1.73c-.38-.4-1.05-.59-2.03-.59h-2.61v4.66Z"/><path class="cls-10" d="M473.24,131.3h-1.69l-.2-1.17c-.79,.91-1.85,1.37-3.17,1.37-.92,0-1.69-.23-2.29-.67-.61-.45-.91-1.1-.91-1.95,0-.98,.4-1.7,1.19-2.15s1.82-.67,3.08-.67c.47,0,1.07,.05,1.82,.14v-1.12c0-1.07-.8-1.6-2.41-1.6-1.06,0-2.03,.19-2.92,.56l-.09-1.8c1.06-.41,2.23-.61,3.53-.61,2.71,0,4.07,1.1,4.07,3.29v6.39Zm-2.18-2.38v-1.42c-.66-.06-1.18-.09-1.57-.09-1.57,0-2.36,.46-2.36,1.39,0,.76,.52,1.13,1.55,1.13,.94,0,1.73-.34,2.38-1.01Z"/><path class="cls-10" d="M477.93,119.28c0,.36-.1,.65-.31,.86s-.52,.32-.95,.32c-.85,0-1.28-.4-1.28-1.19s.43-1.19,1.28-1.19,1.26,.4,1.26,1.19Zm-.18,12.02h-2.18v-9.49h2.18v9.49Z"/><path class="cls-10" d="M488.39,131.3h-1.67l-.22-1.22c-.8,.95-1.83,1.42-3.08,1.42-1.16,0-2.09-.43-2.76-1.28-.68-.85-1.02-2.03-1.02-3.55,0-1.61,.4-2.85,1.21-3.74,.8-.88,1.93-1.32,3.38-1.32,.89,0,1.57,.1,2.03,.29l-.05-.95v-2.81h2.18v13.16Zm-2.18-2.92v-4.72c-.42-.17-.97-.25-1.64-.25-1.85,0-2.77,1.08-2.77,3.24,0,.96,.18,1.7,.55,2.23,.37,.53,.88,.79,1.54,.79,.49,0,.94-.13,1.36-.41,.41-.27,.74-.57,.96-.89Z"/><path class="cls-10" d="M505.47,131.3h-2.3l-1.21-3.29h-5.04l-1.17,3.29h-2.29l4.55-12.73h2.9l4.55,12.73Zm-4.07-4.97l-1.64-4.46-.34-1.35-.32,1.33-1.62,4.48h3.92Z"/><path class="cls-10" d="M513.47,129.23l.09,1.89c-.85,.25-1.75,.38-2.7,.38-1.48,0-2.63-.41-3.46-1.24s-1.25-2.06-1.25-3.71,.42-2.88,1.25-3.7c.83-.82,1.99-1.23,3.46-1.23,.95,0,1.85,.13,2.7,.38l-.09,1.89c-.83-.25-1.63-.38-2.39-.38-1.85,0-2.77,1.01-2.77,3.04s.92,3.04,2.77,3.04c.82,0,1.61-.12,2.39-.36Z"/><path class="cls-10" d="M522.41,129.23l.09,1.89c-.85,.25-1.75,.38-2.7,.38-1.48,0-2.63-.41-3.46-1.24s-1.25-2.06-1.25-3.71,.42-2.88,1.25-3.7c.83-.82,1.99-1.23,3.46-1.23,.95,0,1.85,.13,2.7,.38l-.09,1.89c-.83-.25-1.63-.38-2.39-.38-1.85,0-2.77,1.01-2.77,3.04s.92,3.04,2.77,3.04c.82,0,1.61-.12,2.39-.36Z"/><path class="cls-10" d="M532.11,130.2c-.8,.86-1.95,1.3-3.45,1.3s-2.65-.43-3.44-1.3c-.79-.86-1.19-2.09-1.19-3.67s.4-2.77,1.19-3.63c.79-.86,1.94-1.29,3.44-1.29s2.65,.43,3.45,1.29c.8,.86,1.2,2.07,1.2,3.63s-.4,2.81-1.2,3.67Zm-3.45-.56c1.64,0,2.47-1.03,2.47-3.08s-.82-3.1-2.47-3.1-2.47,1.03-2.47,3.1,.82,3.08,2.47,3.08Z"/><path class="cls-10" d="M543.67,131.3h-1.69l-.22-1.3c-.83,.98-1.93,1.48-3.29,1.48-1.03,0-1.84-.3-2.43-.91-.59-.61-.88-1.49-.88-2.64v-6.12h2.18v5.74c0,1.38,.56,2.07,1.69,2.07,.98,0,1.81-.43,2.47-1.28v-6.53h2.18v9.49Z"/><path class="cls-10" d="M554.49,131.3h-2.18v-5.74c0-1.38-.57-2.07-1.71-2.07-.96,0-1.78,.43-2.47,1.28v6.53h-2.16v-9.49h1.67l.22,1.3c.83-.98,1.93-1.48,3.29-1.48,1.03,0,1.84,.3,2.44,.91,.59,.61,.89,1.48,.89,2.64v6.12Z"/><path class="cls-10" d="M562.28,129.2l.07,1.87c-.78,.29-1.52,.43-2.23,.43-.84,0-1.52-.23-2.04-.67-.52-.45-.78-1.19-.78-2.22v-5.04h-1.24v-1.75h1.28l.25-2.29h1.89v2.29h2.72l-.09,1.75h-2.63v4.82c0,.46,.12,.76,.37,.93s.58,.24,1.02,.24c.49,0,.97-.12,1.42-.36Z"/><path class="cls-10" d="M581.04,131.3h-2.2l-.41-7.58,.04-2.03-.81,2.03-2.47,4.68h-1.58l-2.47-4.68-.83-2.02,.04,2.02-.4,7.58h-2.21l.65-12.73h2.48l3.11,6.16,.41,1.04,.4-1.04,3.11-6.16h2.47l.67,12.73Z"/><path class="cls-10" d="M590.94,131.3h-1.69l-.2-1.17c-.79,.91-1.85,1.37-3.17,1.37-.92,0-1.69-.23-2.29-.67-.61-.45-.91-1.1-.91-1.95,0-.98,.4-1.7,1.19-2.15s1.82-.67,3.08-.67c.47,0,1.07,.05,1.82,.14v-1.12c0-1.07-.8-1.6-2.41-1.6-1.06,0-2.03,.19-2.92,.56l-.09-1.8c1.06-.41,2.23-.61,3.53-.61,2.71,0,4.07,1.1,4.07,3.29v6.39Zm-2.18-2.38v-1.42c-.66-.06-1.18-.09-1.57-.09-1.57,0-2.36,.46-2.36,1.39,0,.76,.52,1.13,1.55,1.13,.94,0,1.73-.34,2.38-1.01Z"/><path class="cls-10" d="M601.76,131.3h-2.18v-5.74c0-1.38-.57-2.07-1.71-2.07-.96,0-1.78,.43-2.47,1.28v6.53h-2.16v-9.49h1.67l.22,1.3c.83-.98,1.93-1.48,3.29-1.48,1.03,0,1.84,.3,2.44,.91,.59,.61,.89,1.48,.89,2.64v6.12Z"/><path class="cls-10" d="M611.82,131.3h-1.69l-.2-1.17c-.79,.91-1.85,1.37-3.17,1.37-.92,0-1.69-.23-2.29-.67-.61-.45-.91-1.1-.91-1.95,0-.98,.4-1.7,1.19-2.15s1.82-.67,3.08-.67c.47,0,1.07,.05,1.82,.14v-1.12c0-1.07-.8-1.6-2.41-1.6-1.06,0-2.03,.19-2.92,.56l-.09-1.8c1.06-.41,2.23-.61,3.53-.61,2.71,0,4.07,1.1,4.07,3.29v6.39Zm-2.18-2.38v-1.42c-.66-.06-1.18-.09-1.57-.09-1.57,0-2.36,.46-2.36,1.39,0,.76,.52,1.13,1.55,1.13,.94,0,1.73-.34,2.38-1.01Z"/><path class="cls-10" d="M622.96,123.49l-1.64,.07c.26,.32,.4,.74,.4,1.24,0,.96-.35,1.71-1.05,2.25s-1.71,.81-3.03,.81c-.4,0-.72-.02-.97-.07-.14,.05-.26,.12-.35,.22-.09,.1-.13,.21-.13,.32,0,.3,.28,.47,.85,.5l2.25,.11c2.28,.14,3.42,1.04,3.42,2.68,0,.98-.43,1.82-1.28,2.5-.85,.68-2.09,1.03-3.73,1.03-1.33,0-2.39-.22-3.19-.66-.79-.44-1.19-1.08-1.19-1.92,0-1,.56-1.78,1.67-2.34-.5-.26-.76-.67-.76-1.21,0-.31,.1-.61,.29-.9s.44-.51,.76-.67c-1.08-.47-1.62-1.34-1.62-2.61,0-1.08,.37-1.89,1.11-2.43s1.72-.81,2.96-.81c.91,0,1.71,.16,2.39,.49l2.75-.31,.09,1.69Zm-4.27,7.07l-2.11-.05c-.34,.18-.6,.42-.8,.72-.2,.3-.3,.6-.3,.9,0,.43,.2,.79,.6,1.08s.99,.43,1.77,.43c.84,0,1.51-.17,2.01-.5,.5-.34,.75-.76,.75-1.26,0-.82-.64-1.25-1.93-1.31Zm1.01-5.78c0-.56-.19-.98-.56-1.24s-.85-.4-1.44-.4-1.1,.14-1.47,.41c-.37,.28-.55,.7-.55,1.28,0,1.04,.65,1.57,1.96,1.57,.67,0,1.18-.14,1.53-.42,.35-.28,.52-.68,.52-1.2Z"/><path class="cls-10" d="M632.41,129.14l-.02,1.75c-1.04,.41-2.23,.61-3.56,.61-1.61,0-2.81-.42-3.62-1.25-.8-.83-1.21-2.03-1.21-3.59s.39-2.83,1.16-3.72c.77-.88,1.88-1.32,3.32-1.32s2.46,.37,3.12,1.12c.67,.74,1,1.71,1,2.9,0,.48-.05,.97-.14,1.48h-6.25c.05,.91,.31,1.57,.78,1.98,.47,.41,1.18,.61,2.12,.61,.98,0,2.08-.19,3.29-.56Zm-1.96-3.47v-.2c0-.68-.16-1.21-.49-1.59s-.81-.57-1.46-.57-1.19,.2-1.58,.59-.62,.98-.68,1.76h4.21Z"/><path class="cls-10" d="M636.84,131.3h-2.18v-9.49h1.66l.25,1.42c.83-1.07,1.97-1.6,3.42-1.6l-.11,1.98c-1.22,0-2.24,.43-3.04,1.3v6.39Z"/><path class="cls-10" d="M641.28,131.05l.09-1.85s.23,.1,.54,.18c.31,.08,.72,.17,1.22,.24s.97,.12,1.4,.12c1.33,0,2-.34,2-1.03,0-.29-.13-.53-.4-.72-.26-.19-.59-.34-.99-.43-.4-.1-.82-.22-1.28-.37-.46-.15-.88-.31-1.28-.5-.4-.18-.73-.46-.99-.85-.26-.39-.4-.86-.4-1.41,0-.91,.34-1.61,1.03-2.09,.68-.48,1.68-.72,2.99-.72,.71,0,1.35,.06,1.94,.18s.96,.23,1.12,.32l-.09,1.8c-.67-.34-1.61-.5-2.81-.5-1.38,0-2.07,.32-2.07,.97,0,.31,.18,.56,.55,.74s.81,.33,1.34,.46,1.05,.28,1.58,.47c.52,.19,.97,.5,1.33,.94,.37,.44,.55,.99,.55,1.66,0,.96-.35,1.67-1.05,2.14s-1.68,.7-2.94,.7c-.5,0-1.04-.04-1.61-.12-.57-.08-.99-.15-1.26-.21-.27-.06-.44-.1-.51-.13Z"/><path class="cls-10" d="M664.45,131.3h-2.39l-1.35-4.46-.43-2.09-.45,2.07-1.35,4.48h-2.32l-2.72-9.49h2.32l1.46,5.58,.29,1.98,.38-1.98,1.57-5.58h1.85l1.49,5.6,.32,2,.36-2,1.53-5.6h2.2l-2.75,9.49Z"/><path class="cls-10" d="M670.98,119.28c0,.36-.1,.65-.31,.86s-.52,.32-.95,.32c-.85,0-1.28-.4-1.28-1.19s.43-1.19,1.28-1.19,1.26,.4,1.26,1.19Zm-.18,12.02h-2.18v-9.49h2.18v9.49Z"/><path class="cls-10" d="M677.45,129.43l.09,1.69c-.59,.25-1.19,.38-1.82,.38-.8,0-1.43-.2-1.89-.59-.46-.4-.68-.99-.68-1.78v-10.98h2.18v10.3c0,.47,.09,.79,.28,.95,.19,.17,.44,.25,.76,.25,.29,0,.65-.07,1.08-.22Z"/><path class="cls-10" d="M683.15,129.43l.09,1.69c-.59,.25-1.19,.38-1.82,.38-.8,0-1.43-.2-1.89-.59-.46-.4-.68-.99-.68-1.78v-10.98h2.18v10.3c0,.47,.09,.79,.28,.95,.19,.17,.44,.25,.76,.25,.29,0,.65-.07,1.08-.22Z"/><path class="cls-10" d="M696.85,131.3h-2.18v-5.74c0-1.38-.57-2.07-1.71-2.07-.96,0-1.78,.41-2.45,1.24v6.57h-2.18v-13.16h2.18v3.62l-.04,1.03c.82-.77,1.82-1.15,3.02-1.15,1.04,0,1.86,.3,2.46,.91,.59,.61,.89,1.48,.89,2.64v6.12Z"/><path class="cls-10" d="M707.11,129.14l-.02,1.75c-1.04,.41-2.23,.61-3.56,.61-1.61,0-2.81-.42-3.62-1.25-.8-.83-1.21-2.03-1.21-3.59s.39-2.83,1.16-3.72c.77-.88,1.88-1.32,3.32-1.32s2.46,.37,3.12,1.12c.67,.74,1,1.71,1,2.9,0,.48-.05,.97-.14,1.48h-6.25c.05,.91,.31,1.57,.78,1.98,.47,.41,1.18,.61,2.12,.61,.98,0,2.08-.19,3.29-.56Zm-1.96-3.47v-.2c0-.68-.16-1.21-.49-1.59s-.81-.57-1.46-.57-1.19,.2-1.58,.59-.62,.98-.68,1.76h4.21Z"/><path class="cls-10" d="M713.66,129.43l.09,1.69c-.59,.25-1.19,.38-1.82,.38-.8,0-1.43-.2-1.89-.59-.46-.4-.68-.99-.68-1.78v-10.98h2.18v10.3c0,.47,.09,.79,.28,.95,.19,.17,.44,.25,.76,.25,.29,0,.65-.07,1.08-.22Z"/><path class="cls-10" d="M715.07,121.82h1.69l.22,1.22c.8-.95,1.83-1.42,3.08-1.42,1.16,0,2.08,.42,2.76,1.27,.68,.85,1.02,2.03,1.02,3.55s-.41,2.83-1.21,3.72c-.81,.88-1.94,1.32-3.38,1.32-.88,0-1.55-.09-2.03-.27l.04,.95v2.81h-2.18v-13.16Zm2.18,2.9v4.72c.42,.18,.97,.27,1.66,.27,1.85,0,2.77-1.08,2.77-3.24,0-.96-.18-1.7-.55-2.23-.37-.53-.88-.79-1.54-.79-.49,0-.95,.13-1.37,.4s-.74,.56-.97,.88Z"/><path class="cls-10" d="M728.6,134.92l.09-1.78c.42,.16,.84,.23,1.26,.23,.91,0,1.6-.7,2.07-2.09l-3.44-9.47h2.38l1.73,5.62,.38,1.64,2.23-7.25h2.29l-3.47,9.68c-.46,1.27-.97,2.2-1.54,2.78s-1.33,.87-2.28,.87c-.52,0-1.08-.08-1.69-.23Z"/><path class="cls-10" d="M746.31,130.2c-.8,.86-1.95,1.3-3.45,1.3s-2.65-.43-3.44-1.3c-.79-.86-1.19-2.09-1.19-3.67s.4-2.77,1.19-3.63c.79-.86,1.94-1.29,3.44-1.29s2.65,.43,3.45,1.29c.8,.86,1.2,2.07,1.2,3.63s-.4,2.81-1.2,3.67Zm-3.45-.56c1.64,0,2.47-1.03,2.47-3.08s-.82-3.1-2.47-3.1-2.47,1.03-2.47,3.1,.82,3.08,2.47,3.08Z"/><path class="cls-10" d="M757.87,131.3h-1.69l-.22-1.3c-.83,.98-1.93,1.48-3.29,1.48-1.03,0-1.84-.3-2.43-.91-.59-.61-.88-1.49-.88-2.64v-6.12h2.18v5.74c0,1.38,.56,2.07,1.69,2.07,.98,0,1.81-.43,2.47-1.28v-6.53h2.18v9.49Z"/><path class="cls-10" d="M769.44,129.2l.07,1.87c-.78,.29-1.52,.43-2.23,.43-.84,0-1.52-.23-2.04-.67-.52-.45-.78-1.19-.78-2.22v-5.04h-1.24v-1.75h1.28l.25-2.29h1.89v2.29h2.72l-.09,1.75h-2.63v4.82c0,.46,.12,.76,.37,.93s.58,.24,1.02,.24c.49,0,.97-.12,1.42-.36Z"/><path class="cls-10" d="M778.83,130.2c-.8,.86-1.95,1.3-3.45,1.3s-2.65-.43-3.44-1.3c-.79-.86-1.19-2.09-1.19-3.67s.4-2.77,1.19-3.63c.79-.86,1.94-1.29,3.44-1.29s2.65,.43,3.45,1.29c.8,.86,1.2,2.07,1.2,3.63s-.4,2.81-1.2,3.67Zm-3.45-.56c1.64,0,2.47-1.03,2.47-3.08s-.82-3.1-2.47-3.1-2.47,1.03-2.47,3.1,.82,3.08,2.47,3.08Z"/><path class="cls-10" d="M433.75,154.5h-2.18v-5.98c0-.61-.15-1.07-.45-1.38-.3-.31-.69-.46-1.17-.46s-.92,.13-1.31,.39c-.4,.26-.7,.55-.92,.87v6.55h-2.2v-5.98c0-.62-.15-1.09-.44-1.39-.29-.3-.69-.45-1.18-.45s-.9,.13-1.3,.39-.71,.54-.93,.85v6.57h-2.18v-9.49h1.67l.23,1.28c.74-.97,1.81-1.46,3.19-1.46s2.29,.5,2.75,1.51c.84-1.01,1.94-1.51,3.29-1.51,.95,0,1.7,.28,2.27,.83,.56,.55,.85,1.37,.85,2.45v6.39Z"/><path class="cls-10" d="M444.56,154.5h-1.69l-.22-1.3c-.83,.98-1.93,1.48-3.29,1.48-1.03,0-1.84-.3-2.43-.91-.59-.61-.88-1.49-.88-2.64v-6.12h2.18v5.74c0,1.38,.56,2.07,1.69,2.07,.98,0,1.81-.43,2.47-1.28v-6.53h2.18v9.49Z"/><path class="cls-10" d="M451.17,152.63l.09,1.69c-.59,.25-1.19,.38-1.82,.38-.8,0-1.43-.2-1.89-.59-.46-.4-.68-.99-.68-1.78v-10.98h2.18v10.3c0,.47,.09,.79,.28,.95,.19,.17,.44,.25,.76,.25,.29,0,.65-.07,1.08-.22Z"/><path class="cls-10" d="M457.92,152.4l.07,1.87c-.78,.29-1.52,.43-2.23,.43-.84,0-1.52-.23-2.04-.67-.52-.45-.78-1.19-.78-2.22v-5.04h-1.24v-1.75h1.28l.25-2.29h1.89v2.29h2.72l-.09,1.75h-2.63v4.82c0,.46,.12,.76,.37,.93s.58,.24,1.02,.24c.49,0,.97-.12,1.42-.36Z"/><path class="cls-10" d="M462.15,142.48c0,.36-.1,.65-.31,.86s-.52,.32-.95,.32c-.85,0-1.28-.4-1.28-1.19s.43-1.19,1.28-1.19,1.26,.4,1.26,1.19Zm-.18,12.02h-2.18v-9.49h2.18v9.49Z"/><path class="cls-10" d="M464.31,145.02h1.69l.22,1.22c.8-.95,1.83-1.42,3.08-1.42,1.16,0,2.08,.42,2.76,1.27,.68,.85,1.02,2.03,1.02,3.55s-.41,2.83-1.21,3.72c-.81,.88-1.94,1.32-3.38,1.32-.88,0-1.55-.09-2.03-.27l.04,.95v2.81h-2.18v-13.16Zm2.18,2.9v4.72c.42,.18,.97,.27,1.66,.27,1.85,0,2.77-1.08,2.77-3.24,0-.96-.18-1.7-.55-2.23-.37-.53-.88-.79-1.54-.79-.49,0-.95,.13-1.37,.4s-.74,.56-.97,.88Z"/><path class="cls-10" d="M479.23,152.63l.09,1.69c-.59,.25-1.19,.38-1.82,.38-.8,0-1.43-.2-1.89-.59-.46-.4-.68-.99-.68-1.78v-10.98h2.18v10.3c0,.47,.09,.79,.28,.95,.19,.17,.44,.25,.76,.25,.29,0,.65-.07,1.08-.22Z"/><path class="cls-10" d="M479.38,158.12l.09-1.78c.42,.16,.84,.23,1.26,.23,.91,0,1.6-.7,2.07-2.09l-3.44-9.47h2.38l1.73,5.62,.38,1.64,2.23-7.25h2.29l-3.47,9.68c-.46,1.27-.97,2.2-1.54,2.78s-1.33,.87-2.28,.87c-.52,0-1.08-.08-1.69-.23Z"/><path class="cls-10" d="M492.68,158.12l.09-1.78c.42,.16,.84,.23,1.26,.23,.91,0,1.6-.7,2.07-2.09l-3.44-9.47h2.38l1.73,5.62,.38,1.64,2.23-7.25h2.29l-3.47,9.68c-.46,1.27-.97,2.2-1.54,2.78s-1.33,.87-2.28,.87c-.52,0-1.08-.08-1.69-.23Z"/><path class="cls-10" d="M510.38,153.4c-.8,.86-1.95,1.3-3.45,1.3s-2.65-.43-3.44-1.3c-.79-.86-1.19-2.09-1.19-3.67s.4-2.77,1.19-3.63c.79-.86,1.94-1.29,3.44-1.29s2.65,.43,3.45,1.29c.8,.86,1.2,2.07,1.2,3.63s-.4,2.81-1.2,3.67Zm-3.45-.56c1.64,0,2.47-1.03,2.47-3.08s-.82-3.1-2.47-3.1-2.47,1.03-2.47,3.1,.82,3.08,2.47,3.08Z"/><path class="cls-10" d="M521.94,154.5h-1.69l-.22-1.3c-.83,.98-1.93,1.48-3.29,1.48-1.03,0-1.84-.3-2.43-.91-.59-.61-.88-1.49-.88-2.64v-6.12h2.18v5.74c0,1.38,.56,2.07,1.69,2.07,.98,0,1.81-.43,2.47-1.28v-6.53h2.18v9.49Z"/><path class="cls-10" d="M526.43,154.5h-2.18v-9.49h1.66l.25,1.42c.83-1.07,1.97-1.6,3.42-1.6l-.11,1.98c-1.22,0-2.24,.43-3.04,1.3v6.39Z"/><path class="cls-10" d="M534.98,154.18v-12.83h2.18v3.49l-.05,1.19c.73-.8,1.67-1.21,2.83-1.21s2.09,.43,2.77,1.28c.68,.85,1.03,2.03,1.03,3.53,0,1.68-.45,2.95-1.36,3.8-.91,.85-2.15,1.28-3.74,1.28-.62,0-1.3-.06-2.03-.17-.73-.11-1.27-.23-1.62-.35Zm2.18-6.41v5c.47,.12,.94,.18,1.42,.18,1.99,0,2.99-1.1,2.99-3.31,0-.96-.18-1.7-.54-2.22-.36-.52-.88-.78-1.57-.78-.83,0-1.6,.38-2.3,1.13Z"/><path class="cls-10" d="M554.09,154.5h-1.69l-.22-1.3c-.83,.98-1.93,1.48-3.29,1.48-1.03,0-1.84-.3-2.43-.91-.59-.61-.88-1.49-.88-2.64v-6.12h2.18v5.74c0,1.38,.56,2.07,1.69,2.07,.98,0,1.81-.43,2.47-1.28v-6.53h2.18v9.49Z"/><path class="cls-10" d="M556.07,154.25l.09-1.85s.23,.1,.54,.18c.31,.08,.72,.17,1.22,.24s.97,.12,1.4,.12c1.33,0,2-.34,2-1.03,0-.29-.13-.53-.4-.72-.26-.19-.59-.34-.99-.43-.4-.1-.82-.22-1.28-.37-.46-.15-.88-.31-1.28-.5-.4-.18-.73-.46-.99-.85-.26-.39-.4-.86-.4-1.41,0-.91,.34-1.61,1.03-2.09,.68-.48,1.68-.72,2.99-.72,.71,0,1.35,.06,1.94,.18s.96,.23,1.12,.32l-.09,1.8c-.67-.34-1.61-.5-2.81-.5-1.38,0-2.07,.32-2.07,.97,0,.31,.18,.56,.55,.74s.81,.33,1.34,.46,1.05,.28,1.58,.47c.52,.19,.97,.5,1.33,.94,.37,.44,.55,.99,.55,1.66,0,.96-.35,1.67-1.05,2.14s-1.68,.7-2.94,.7c-.5,0-1.04-.04-1.61-.12-.57-.08-.99-.15-1.26-.21-.27-.06-.44-.1-.51-.13Z"/><path class="cls-10" d="M567.75,142.48c0,.36-.1,.65-.31,.86s-.52,.32-.95,.32c-.85,0-1.28-.4-1.28-1.19s.43-1.19,1.28-1.19,1.26,.4,1.26,1.19Zm-.18,12.02h-2.18v-9.49h2.18v9.49Z"/><path class="cls-10" d="M578.43,154.5h-2.18v-5.74c0-1.38-.57-2.07-1.71-2.07-.96,0-1.78,.43-2.47,1.28v6.53h-2.16v-9.49h1.67l.22,1.3c.83-.98,1.93-1.48,3.29-1.48,1.03,0,1.84,.3,2.44,.91,.59,.61,.89,1.48,.89,2.64v6.12Z"/><path class="cls-10" d="M588.69,152.34l-.02,1.75c-1.04,.41-2.23,.61-3.56,.61-1.61,0-2.81-.42-3.62-1.25-.8-.83-1.21-2.03-1.21-3.59s.39-2.83,1.16-3.72c.77-.88,1.88-1.32,3.32-1.32s2.46,.37,3.12,1.12c.67,.74,1,1.71,1,2.9,0,.48-.05,.97-.14,1.48h-6.25c.05,.91,.31,1.57,.78,1.98,.47,.41,1.18,.61,2.12,.61,.98,0,2.08-.19,3.29-.56Zm-1.96-3.47v-.2c0-.68-.16-1.21-.49-1.59s-.81-.57-1.46-.57-1.19,.2-1.58,.59-.62,.98-.68,1.76h4.21Z"/><path class="cls-10" d="M590.61,154.25l.09-1.85s.23,.1,.54,.18c.31,.08,.72,.17,1.22,.24s.97,.12,1.4,.12c1.33,0,2-.34,2-1.03,0-.29-.13-.53-.4-.72-.26-.19-.59-.34-.99-.43-.4-.1-.82-.22-1.28-.37-.46-.15-.88-.31-1.28-.5-.4-.18-.73-.46-.99-.85-.26-.39-.4-.86-.4-1.41,0-.91,.34-1.61,1.03-2.09,.68-.48,1.68-.72,2.99-.72,.71,0,1.35,.06,1.94,.18s.96,.23,1.12,.32l-.09,1.8c-.67-.34-1.61-.5-2.81-.5-1.38,0-2.07,.32-2.07,.97,0,.31,.18,.56,.55,.74s.81,.33,1.34,.46,1.05,.28,1.58,.47c.52,.19,.97,.5,1.33,.94,.37,.44,.55,.99,.55,1.66,0,.96-.35,1.67-1.05,2.14s-1.68,.7-2.94,.7c-.5,0-1.04-.04-1.61-.12-.57-.08-.99-.15-1.26-.21-.27-.06-.44-.1-.51-.13Z"/><path class="cls-10" d="M599.54,154.25l.09-1.85s.23,.1,.54,.18c.31,.08,.72,.17,1.22,.24s.97,.12,1.4,.12c1.33,0,2-.34,2-1.03,0-.29-.13-.53-.4-.72-.26-.19-.59-.34-.99-.43-.4-.1-.82-.22-1.28-.37-.46-.15-.88-.31-1.28-.5-.4-.18-.73-.46-.99-.85-.26-.39-.4-.86-.4-1.41,0-.91,.34-1.61,1.03-2.09,.68-.48,1.68-.72,2.99-.72,.71,0,1.35,.06,1.94,.18s.96,.23,1.12,.32l-.09,1.8c-.67-.34-1.61-.5-2.81-.5-1.38,0-2.07,.32-2.07,.97,0,.31,.18,.56,.55,.74s.81,.33,1.34,.46,1.05,.28,1.58,.47c.52,.19,.97,.5,1.33,.94,.37,.44,.55,.99,.55,1.66,0,.96-.35,1.67-1.05,2.14s-1.68,.7-2.94,.7c-.5,0-1.04-.04-1.61-.12-.57-.08-.99-.15-1.26-.21-.27-.06-.44-.1-.51-.13Z"/><path class="cls-10" d="M614.79,154.5h-2.18v-9.49h1.66l.25,1.42c.83-1.07,1.97-1.6,3.42-1.6l-.11,1.98c-1.22,0-2.24,.43-3.04,1.3v6.39Z"/><path class="cls-10" d="M627.33,152.34l-.02,1.75c-1.04,.41-2.23,.61-3.56,.61-1.61,0-2.81-.42-3.62-1.25-.8-.83-1.21-2.03-1.21-3.59s.39-2.83,1.16-3.72c.77-.88,1.88-1.32,3.32-1.32s2.46,.37,3.12,1.12c.67,.74,1,1.71,1,2.9,0,.48-.05,.97-.14,1.48h-6.25c.05,.91,.31,1.57,.78,1.98,.47,.41,1.18,.61,2.12,.61,.98,0,2.08-.19,3.29-.56Zm-1.96-3.47v-.2c0-.68-.16-1.21-.49-1.59s-.81-.57-1.46-.57-1.19,.2-1.58,.59-.62,.98-.68,1.76h4.21Z"/><path class="cls-10" d="M634.46,154.5h-2.77l-3.11-9.49h2.32l1.71,5.72,.47,2.2,.5-2.21,1.8-5.71h2.25l-3.17,9.49Z"/><path class="cls-10" d="M646.83,152.34l-.02,1.75c-1.04,.41-2.23,.61-3.56,.61-1.61,0-2.81-.42-3.62-1.25-.8-.83-1.21-2.03-1.21-3.59s.39-2.83,1.16-3.72c.77-.88,1.88-1.32,3.32-1.32s2.46,.37,3.12,1.12c.67,.74,1,1.71,1,2.9,0,.48-.05,.97-.14,1.48h-6.25c.05,.91,.31,1.57,.78,1.98,.47,.41,1.18,.61,2.12,.61,.98,0,2.08-.19,3.29-.56Zm-1.96-3.47v-.2c0-.68-.16-1.21-.49-1.59s-.81-.57-1.46-.57-1.19,.2-1.58,.59-.62,.98-.68,1.76h4.21Z"/><path class="cls-10" d="M657.59,154.5h-2.18v-5.74c0-1.38-.57-2.07-1.71-2.07-.96,0-1.78,.43-2.47,1.28v6.53h-2.16v-9.49h1.67l.22,1.3c.83-.98,1.93-1.48,3.29-1.48,1.03,0,1.84,.3,2.44,.91,.59,.61,.89,1.48,.89,2.64v6.12Z"/><path class="cls-10" d="M668.41,154.5h-1.69l-.22-1.3c-.83,.98-1.93,1.48-3.29,1.48-1.03,0-1.84-.3-2.43-.91-.59-.61-.88-1.49-.88-2.64v-6.12h2.18v5.74c0,1.38,.56,2.07,1.69,2.07,.98,0,1.81-.43,2.47-1.28v-6.53h2.18v9.49Z"/><path class="cls-10" d="M678.67,152.34l-.02,1.75c-1.04,.41-2.23,.61-3.56,.61-1.61,0-2.81-.42-3.62-1.25-.8-.83-1.21-2.03-1.21-3.59s.39-2.83,1.16-3.72c.77-.88,1.88-1.32,3.32-1.32s2.46,.37,3.12,1.12c.67,.74,1,1.71,1,2.9,0,.48-.05,.97-.14,1.48h-6.25c.05,.91,.31,1.57,.78,1.98,.47,.41,1.18,.61,2.12,.61,.98,0,2.08-.19,3.29-.56Zm-1.96-3.47v-.2c0-.68-.16-1.21-.49-1.59s-.81-.57-1.46-.57-1.19,.2-1.58,.59-.62,.98-.68,1.76h4.21Z"/><path class="cls-10" d="M680.6,154.25l.09-1.85s.23,.1,.54,.18c.31,.08,.72,.17,1.22,.24s.97,.12,1.4,.12c1.33,0,2-.34,2-1.03,0-.29-.13-.53-.4-.72-.26-.19-.59-.34-.99-.43-.4-.1-.82-.22-1.28-.37-.46-.15-.88-.31-1.28-.5-.4-.18-.73-.46-.99-.85-.26-.39-.4-.86-.4-1.41,0-.91,.34-1.61,1.03-2.09,.68-.48,1.68-.72,2.99-.72,.71,0,1.35,.06,1.94,.18s.96,.23,1.12,.32l-.09,1.8c-.67-.34-1.61-.5-2.81-.5-1.38,0-2.07,.32-2.07,.97,0,.31,.18,.56,.55,.74s.81,.33,1.34,.46,1.05,.28,1.58,.47c.52,.19,.97,.5,1.33,.94,.37,.44,.55,.99,.55,1.66,0,.96-.35,1.67-1.05,2.14s-1.68,.7-2.94,.7c-.5,0-1.04-.04-1.61-.12-.57-.08-.99-.15-1.26-.21-.27-.06-.44-.1-.51-.13Z"/><path class="cls-10" d="M701.42,154.5h-1.69l-.2-1.17c-.79,.91-1.85,1.37-3.17,1.37-.92,0-1.69-.23-2.29-.67-.61-.45-.91-1.1-.91-1.95,0-.98,.4-1.7,1.19-2.15s1.82-.67,3.08-.67c.47,0,1.07,.05,1.82,.14v-1.12c0-1.07-.8-1.6-2.41-1.6-1.06,0-2.03,.19-2.92,.56l-.09-1.8c1.06-.41,2.23-.61,3.53-.61,2.71,0,4.07,1.1,4.07,3.29v6.39Zm-2.18-2.38v-1.42c-.66-.06-1.18-.09-1.57-.09-1.57,0-2.36,.46-2.36,1.39,0,.76,.52,1.13,1.55,1.13,.94,0,1.73-.34,2.38-1.01Z"/><path class="cls-10" d="M712.24,154.5h-2.18v-5.74c0-1.38-.57-2.07-1.71-2.07-.96,0-1.78,.43-2.47,1.28v6.53h-2.16v-9.49h1.67l.22,1.3c.83-.98,1.93-1.48,3.29-1.48,1.03,0,1.84,.3,2.44,.91,.59,.61,.89,1.48,.89,2.64v6.12Z"/><path class="cls-10" d="M722.84,154.5h-1.67l-.22-1.22c-.8,.95-1.83,1.42-3.08,1.42-1.16,0-2.09-.43-2.76-1.28-.68-.85-1.02-2.03-1.02-3.55,0-1.61,.4-2.85,1.21-3.74,.8-.88,1.93-1.32,3.38-1.32,.89,0,1.57,.1,2.03,.29l-.05-.95v-2.81h2.18v13.16Zm-2.18-2.92v-4.72c-.42-.17-.97-.25-1.64-.25-1.85,0-2.77,1.08-2.77,3.24,0,.96,.18,1.7,.55,2.23,.37,.53,.88,.79,1.54,.79,.49,0,.94-.13,1.36-.41,.41-.27,.74-.57,.96-.89Z"/><path class="cls-10" d="M728.6,154.25l.09-1.85s.23,.1,.54,.18c.31,.08,.72,.17,1.22,.24s.97,.12,1.4,.12c1.33,0,2-.34,2-1.03,0-.29-.13-.53-.4-.72-.26-.19-.59-.34-.99-.43-.4-.1-.82-.22-1.28-.37-.46-.15-.88-.31-1.28-.5-.4-.18-.73-.46-.99-.85-.26-.39-.4-.86-.4-1.41,0-.91,.34-1.61,1.03-2.09,.68-.48,1.68-.72,2.99-.72,.71,0,1.35,.06,1.94,.18s.96,.23,1.12,.32l-.09,1.8c-.67-.34-1.61-.5-2.81-.5-1.38,0-2.07,.32-2.07,.97,0,.31,.18,.56,.55,.74s.81,.33,1.34,.46,1.05,.28,1.58,.47c.52,.19,.97,.5,1.33,.94,.37,.44,.55,.99,.55,1.66,0,.96-.35,1.67-1.05,2.14s-1.68,.7-2.94,.7c-.5,0-1.04-.04-1.61-.12-.57-.08-.99-.15-1.26-.21-.27-.06-.44-.1-.51-.13Z"/><path class="cls-10" d="M745.65,154.5h-1.69l-.2-1.17c-.79,.91-1.85,1.37-3.17,1.37-.92,0-1.69-.23-2.29-.67-.61-.45-.91-1.1-.91-1.95,0-.98,.4-1.7,1.19-2.15s1.82-.67,3.08-.67c.47,0,1.07,.05,1.82,.14v-1.12c0-1.07-.8-1.6-2.41-1.6-1.06,0-2.03,.19-2.92,.56l-.09-1.8c1.06-.41,2.23-.61,3.53-.61,2.71,0,4.07,1.1,4.07,3.29v6.39Zm-2.18-2.38v-1.42c-.66-.06-1.18-.09-1.57-.09-1.57,0-2.36,.46-2.36,1.39,0,.76,.52,1.13,1.55,1.13,.94,0,1.73-.34,2.38-1.01Z"/><path class="cls-10" d="M752.25,152.63l.09,1.69c-.59,.25-1.19,.38-1.82,.38-.8,0-1.43-.2-1.89-.59-.46-.4-.68-.99-.68-1.78v-10.98h2.18v10.3c0,.47,.09,.79,.28,.95,.19,.17,.44,.25,.76,.25,.29,0,.65-.07,1.08-.22Z"/><path class="cls-10" d="M761.58,152.34l-.02,1.75c-1.04,.41-2.23,.61-3.56,.61-1.61,0-2.81-.42-3.62-1.25-.8-.83-1.21-2.03-1.21-3.59s.39-2.83,1.16-3.72c.77-.88,1.88-1.32,3.32-1.32s2.46,.37,3.12,1.12c.67,.74,1,1.71,1,2.9,0,.48-.05,.97-.14,1.48h-6.25c.05,.91,.31,1.57,.78,1.98,.47,.41,1.18,.61,2.12,.61,.98,0,2.08-.19,3.29-.56Zm-1.96-3.47v-.2c0-.68-.16-1.21-.49-1.59s-.81-.57-1.46-.57-1.19,.2-1.58,.59-.62,.98-.68,1.76h4.21Z"/><path class="cls-10" d="M763.5,154.25l.09-1.85s.23,.1,.54,.18c.31,.08,.72,.17,1.22,.24s.97,.12,1.4,.12c1.33,0,2-.34,2-1.03,0-.29-.13-.53-.4-.72-.26-.19-.59-.34-.99-.43-.4-.1-.82-.22-1.28-.37-.46-.15-.88-.31-1.28-.5-.4-.18-.73-.46-.99-.85-.26-.39-.4-.86-.4-1.41,0-.91,.34-1.61,1.03-2.09,.68-.48,1.68-.72,2.99-.72,.71,0,1.35,.06,1.94,.18s.96,.23,1.12,.32l-.09,1.8c-.67-.34-1.61-.5-2.81-.5-1.38,0-2.07,.32-2.07,.97,0,.31,.18,.56,.55,.74s.81,.33,1.34,.46,1.05,.28,1.58,.47c.52,.19,.97,.5,1.33,.94,.37,.44,.55,.99,.55,1.66,0,.96-.35,1.67-1.05,2.14s-1.68,.7-2.94,.7c-.5,0-1.04-.04-1.61-.12-.57-.08-.99-.15-1.26-.21-.27-.06-.44-.1-.51-.13Z"/></g><g><rect class="cls-8" x="872.84" y="82" width="227.72" height="36" rx="5.28" ry="5.28"/><g><path class="cls-9" d="M897.13,105.28h-8.91v-12.73h8.91v1.93h-6.64v3.42h5.81v1.85h-5.81v3.6h6.64v1.93Z"/><path class="cls-9" d="M907.45,105.28h-2.5l-2.14-3.13-2.2,3.13h-2.32l3.35-4.73-3.28-4.75h2.48l2.11,3.2,2.21-3.2h2.25l-3.35,4.7,3.38,4.79Z"/><path class="cls-9" d="M908.87,95.8h1.69l.22,1.22c.8-.95,1.83-1.42,3.08-1.42,1.16,0,2.08,.42,2.76,1.27,.68,.85,1.02,2.03,1.02,3.55s-.41,2.83-1.21,3.72c-.81,.88-1.94,1.32-3.38,1.32-.88,0-1.55-.09-2.03-.27l.04,.95v2.81h-2.18v-13.16Zm2.18,2.9v4.72c.42,.18,.97,.27,1.66,.27,1.85,0,2.77-1.08,2.77-3.24,0-.96-.18-1.7-.55-2.23-.37-.53-.88-.79-1.54-.79-.49,0-.95,.13-1.37,.4s-.74,.56-.97,.88Z"/><path class="cls-9" d="M923.79,103.41l.09,1.69c-.59,.25-1.19,.38-1.82,.38-.8,0-1.43-.2-1.89-.59-.46-.4-.68-.99-.68-1.78v-10.98h2.18v10.3c0,.47,.09,.79,.28,.95,.19,.17,.44,.25,.76,.25,.29,0,.65-.07,1.08-.22Z"/><path class="cls-9" d="M932.78,104.18c-.8,.86-1.95,1.3-3.45,1.3s-2.65-.43-3.44-1.3c-.79-.86-1.19-2.09-1.19-3.67s.4-2.77,1.19-3.63c.79-.86,1.94-1.29,3.44-1.29s2.65,.43,3.45,1.29c.8,.86,1.2,2.07,1.2,3.63s-.4,2.81-1.2,3.67Zm-3.45-.56c1.64,0,2.47-1.03,2.47-3.08s-.82-3.1-2.47-3.1-2.47,1.03-2.47,3.1,.82,3.08,2.47,3.08Z"/><path class="cls-9" d="M938.01,105.28h-2.18v-9.49h1.66l.25,1.42c.83-1.07,1.97-1.6,3.42-1.6l-.11,1.98c-1.22,0-2.24,.43-3.04,1.3v6.39Z"/><path class="cls-9" d="M950.56,103.12l-.02,1.75c-1.04,.41-2.23,.61-3.56,.61-1.61,0-2.81-.42-3.62-1.25-.8-.83-1.21-2.03-1.21-3.59s.39-2.83,1.16-3.72c.77-.88,1.88-1.32,3.32-1.32s2.46,.37,3.12,1.12c.67,.74,1,1.71,1,2.9,0,.48-.05,.97-.14,1.48h-6.25c.05,.91,.31,1.57,.78,1.98,.47,.41,1.18,.61,2.12,.61,.98,0,2.08-.19,3.29-.56Zm-1.96-3.47v-.2c0-.68-.16-1.21-.49-1.59s-.81-.57-1.46-.57-1.19,.2-1.58,.59-.62,.98-.68,1.76h4.21Z"/><path class="cls-9" d="M962.08,103.18l.07,1.87c-.78,.29-1.52,.43-2.23,.43-.84,0-1.52-.23-2.04-.67-.52-.45-.78-1.19-.78-2.22v-5.04h-1.24v-1.75h1.28l.25-2.29h1.89v2.29h2.72l-.09,1.75h-2.63v4.82c0,.46,.12,.76,.37,.93s.58,.24,1.02,.24c.49,0,.97-.12,1.42-.36Z"/><path class="cls-9" d="M972.43,105.28h-2.18v-5.74c0-1.38-.57-2.07-1.71-2.07-.96,0-1.78,.41-2.45,1.24v6.57h-2.18v-13.16h2.18v3.62l-.04,1.03c.82-.77,1.82-1.15,3.02-1.15,1.04,0,1.86,.3,2.46,.91,.59,.61,.89,1.48,.89,2.64v6.12Z"/><path class="cls-9" d="M982.69,103.12l-.02,1.75c-1.04,.41-2.23,.61-3.56,.61-1.61,0-2.81-.42-3.62-1.25-.8-.83-1.21-2.03-1.21-3.59s.39-2.83,1.16-3.72c.77-.88,1.88-1.32,3.32-1.32s2.46,.37,3.12,1.12c.67,.74,1,1.71,1,2.9,0,.48-.05,.97-.14,1.48h-6.25c.05,.91,.31,1.57,.78,1.98,.47,.41,1.18,.61,2.12,.61,.98,0,2.08-.19,3.29-.56Zm-1.96-3.47v-.2c0-.68-.16-1.21-.49-1.59s-.81-.57-1.46-.57-1.19,.2-1.58,.59-.62,.98-.68,1.76h4.21Z"/><path class="cls-9" d="M988.72,95.8h1.69l.22,1.22c.8-.95,1.83-1.42,3.08-1.42,1.16,0,2.08,.42,2.76,1.27,.68,.85,1.02,2.03,1.02,3.55s-.41,2.83-1.21,3.72c-.81,.88-1.94,1.32-3.38,1.32-.88,0-1.55-.09-2.03-.27l.04,.95v2.81h-2.18v-13.16Zm2.18,2.9v4.72c.42,.18,.97,.27,1.66,.27,1.85,0,2.77-1.08,2.77-3.24,0-.96-.18-1.7-.55-2.23-.37-.53-.88-.79-1.54-.79-.49,0-.95,.13-1.37,.4s-.74,.56-.97,.88Z"/><path class="cls-9" d="M1003.64,103.41l.09,1.69c-.59,.25-1.19,.38-1.82,.38-.8,0-1.43-.2-1.89-.59-.46-.4-.68-.99-.68-1.78v-10.98h2.18v10.3c0,.47,.09,.79,.28,.95,.19,.17,.44,.25,.76,.25,.29,0,.65-.07,1.08-.22Z"/><path class="cls-9" d="M1012.89,105.28h-1.69l-.2-1.17c-.79,.91-1.85,1.37-3.17,1.37-.92,0-1.69-.23-2.29-.67-.61-.45-.91-1.1-.91-1.95,0-.98,.4-1.7,1.19-2.15s1.82-.67,3.08-.67c.47,0,1.07,.05,1.82,.14v-1.12c0-1.07-.8-1.6-2.41-1.6-1.06,0-2.03,.19-2.92,.56l-.09-1.8c1.06-.41,2.23-.61,3.53-.61,2.71,0,4.07,1.1,4.07,3.29v6.39Zm-2.18-2.38v-1.42c-.66-.06-1.18-.09-1.57-.09-1.57,0-2.36,.46-2.36,1.39,0,.76,.52,1.13,1.55,1.13,.94,0,1.73-.34,2.38-1.01Z"/><path class="cls-9" d="M1023.71,105.28h-2.18v-5.74c0-1.38-.57-2.07-1.71-2.07-.96,0-1.78,.43-2.47,1.28v6.53h-2.16v-9.49h1.67l.22,1.3c.83-.98,1.93-1.48,3.29-1.48,1.03,0,1.84,.3,2.44,.91,.59,.61,.89,1.48,.89,2.64v6.12Z"/><path class="cls-9" d="M1025.69,105.03l.09-1.85s.23,.1,.54,.18c.31,.08,.72,.17,1.22,.24s.97,.12,1.4,.12c1.33,0,2-.34,2-1.03,0-.29-.13-.53-.4-.72-.26-.19-.59-.34-.99-.43-.4-.1-.82-.22-1.28-.37-.46-.15-.88-.31-1.28-.5-.4-.18-.73-.46-.99-.85-.26-.39-.4-.86-.4-1.41,0-.91,.34-1.61,1.03-2.09,.68-.48,1.68-.72,2.99-.72,.71,0,1.35,.06,1.94,.18s.96,.23,1.12,.32l-.09,1.8c-.67-.34-1.61-.5-2.81-.5-1.38,0-2.07,.32-2.07,.97,0,.31,.18,.56,.55,.74s.81,.33,1.34,.46,1.05,.28,1.58,.47c.52,.19,.97,.5,1.33,.94,.37,.44,.55,.99,.55,1.66,0,.96-.35,1.67-1.05,2.14s-1.68,.7-2.94,.7c-.5,0-1.04-.04-1.61-.12-.57-.08-.99-.15-1.26-.21-.27-.06-.44-.1-.51-.13Z"/><path class="cls-9" d="M1044.25,103.18l.07,1.87c-.78,.29-1.52,.43-2.23,.43-.84,0-1.52-.23-2.04-.67-.52-.45-.78-1.19-.78-2.22v-5.04h-1.24v-1.75h1.28l.25-2.29h1.89v2.29h2.72l-.09,1.75h-2.63v4.82c0,.46,.12,.76,.37,.93s.58,.24,1.02,.24c.49,0,.97-.12,1.42-.36Z"/><path class="cls-9" d="M1053.63,104.18c-.8,.86-1.95,1.3-3.45,1.3s-2.65-.43-3.44-1.3c-.79-.86-1.19-2.09-1.19-3.67s.4-2.77,1.19-3.63c.79-.86,1.94-1.29,3.44-1.29s2.65,.43,3.45,1.29c.8,.86,1.2,2.07,1.2,3.63s-.4,2.81-1.2,3.67Zm-3.45-.56c1.64,0,2.47-1.03,2.47-3.08s-.82-3.1-2.47-3.1-2.47,1.03-2.47,3.1,.82,3.08,2.47,3.08Z"/><path class="cls-9" d="M1064.98,105.28h-1.67l-.22-1.22c-.8,.95-1.83,1.42-3.08,1.42-1.16,0-2.09-.43-2.76-1.28-.68-.85-1.02-2.03-1.02-3.55,0-1.61,.4-2.85,1.21-3.74,.8-.88,1.93-1.32,3.38-1.32,.89,0,1.57,.1,2.03,.29l-.05-.95v-2.81h2.18v13.16Zm-2.18-2.92v-4.72c-.42-.17-.97-.25-1.64-.25-1.85,0-2.77,1.08-2.77,3.24,0,.96,.18,1.7,.55,2.23,.37,.53,.88,.79,1.54,.79,.49,0,.94-.13,1.36-.41,.41-.27,.74-.57,.96-.89Z"/><path class="cls-9" d="M1075.04,105.28h-1.69l-.2-1.17c-.79,.91-1.85,1.37-3.17,1.37-.92,0-1.69-.23-2.29-.67-.61-.45-.91-1.1-.91-1.95,0-.98,.4-1.7,1.19-2.15s1.82-.67,3.08-.67c.47,0,1.07,.05,1.82,.14v-1.12c0-1.07-.8-1.6-2.41-1.6-1.06,0-2.03,.19-2.92,.56l-.09-1.8c1.06-.41,2.23-.61,3.53-.61,2.71,0,4.07,1.1,4.07,3.29v6.39Zm-2.18-2.38v-1.42c-.66-.06-1.18-.09-1.57-.09-1.57,0-2.36,.46-2.36,1.39,0,.76,.52,1.13,1.55,1.13,.94,0,1.73-.34,2.38-1.01Z"/><path class="cls-9" d="M1076.2,108.9l.09-1.78c.42,.16,.84,.23,1.26,.23,.91,0,1.6-.7,2.07-2.09l-3.44-9.47h2.38l1.73,5.62,.38,1.64,2.23-7.25h2.29l-3.47,9.68c-.46,1.27-.97,2.2-1.54,2.78s-1.33,.87-2.28,.87c-.52,0-1.08-.08-1.69-.23Z"/></g></g></g></svg>