<svg width="24" height="24" viewBox="0 0 24 24" fill="none" xmlns="http://www.w3.org/2000/svg">
<path d="M8.81795 17.303C7.75729 20.4849 3.51465 20.4849 3.51465 20.4849C3.51465 20.4849 3.51465 16.2423 6.69663 15.1816" stroke="#3D464D" stroke-width="1.5" stroke-linecap="round" stroke-linejoin="round"/>
<path d="M18.3639 9.87937L12 16.2433L7.75732 12.0007L14.1213 5.63673C16.531 3.22697 18.9408 3.25047 19.9685 3.4038C20.1267 3.42739 20.2732 3.50119 20.3863 3.61431C20.4995 3.72744 20.5733 3.87391 20.5969 4.03214C20.7502 5.05984 20.7737 7.46961 18.3639 9.87937Z" stroke="#3D464D" stroke-width="1.5" stroke-linecap="round" stroke-linejoin="round"/>
<path d="M17.3033 10.9395V16.9928C17.3033 17.0912 17.2839 17.1888 17.2462 17.2798C17.2085 17.3708 17.1533 17.4534 17.0836 17.5231L14.0516 20.5551C13.9556 20.6511 13.8354 20.7193 13.7037 20.7523C13.572 20.7853 13.4338 20.782 13.3039 20.7426C13.174 20.7033 13.0572 20.6294 12.9659 20.5289C12.8747 20.4284 12.8124 20.305 12.7858 20.1719L12 16.2428" stroke="#3D464D" stroke-width="1.5" stroke-linecap="round" stroke-linejoin="round"/>
<path d="M13.0607 6.69727H7.00738C6.90889 6.69727 6.81136 6.71666 6.72037 6.75436C6.62938 6.79205 6.5467 6.84729 6.47705 6.91693L3.44501 9.94898C3.34902 10.045 3.28088 10.1652 3.24787 10.2969C3.21485 10.4286 3.21818 10.5667 3.25752 10.6966C3.29686 10.8266 3.37072 10.9434 3.47124 11.0346C3.57175 11.1259 3.69514 11.1881 3.82826 11.2147L7.75738 12.0006" stroke="#3D464D" stroke-width="1.5" stroke-linecap="round" stroke-linejoin="round"/>
</svg>
